<?xml version="1.0" encoding="UTF-8"?>
<svg xmlns="http://www.w3.org/2000/svg" xmlns:xlink="http://www.w3.org/1999/xlink" width="360pt" height="349pt" viewBox="0 0 360 349" version="1.1">
<g id="surface6">
<path style="fill:none;stroke-width:1;stroke-linecap:butt;stroke-linejoin:miter;stroke:rgb(14.999619%,28.999771%,50.000763%);stroke-opacity:0.7;stroke-miterlimit:3.25;" d="M 203.726562 334.269531 L 134.367188 243.210938 "/>
<path style="fill:none;stroke-width:1;stroke-linecap:butt;stroke-linejoin:miter;stroke:rgb(14.999619%,28.999771%,50.000763%);stroke-opacity:0.7;stroke-miterlimit:3.25;" d="M 205.277344 333.585938 L 171.976562 152.308594 "/>
<path style="fill:none;stroke-width:1;stroke-linecap:butt;stroke-linejoin:miter;stroke:rgb(14.999619%,28.999771%,50.000763%);stroke-opacity:0.7;stroke-miterlimit:3.25;" d="M 207.710938 333.984375 L 264.84375 231.070312 "/>
<path style="fill:none;stroke-width:1;stroke-linecap:butt;stroke-linejoin:miter;stroke:rgb(14.999619%,28.999771%,50.000763%);stroke-opacity:0.7;stroke-miterlimit:3.25;" d="M 205.617188 333.539062 L 195.199219 216.003906 "/>
<path style="fill:none;stroke-width:1;stroke-linecap:butt;stroke-linejoin:miter;stroke:rgb(14.999619%,28.999771%,50.000763%);stroke-opacity:0.7;stroke-miterlimit:3.25;" d="M 208.953125 335.117188 L 337.195312 247.542969 "/>
<path style="fill:none;stroke-width:1;stroke-linecap:butt;stroke-linejoin:miter;stroke:rgb(14.999619%,28.999771%,50.000763%);stroke-opacity:0.7;stroke-miterlimit:3.25;" d="M 202.519531 335.890625 L 105.273438 299.394531 "/>
<path style="fill:none;stroke-width:1;stroke-linecap:butt;stroke-linejoin:miter;stroke:rgb(14.999619%,28.999771%,50.000763%);stroke-opacity:0.7;stroke-miterlimit:3.25;" d="M 203.15625 334.8125 L 67.363281 219.425781 "/>
<path style="fill:none;stroke-width:1;stroke-linecap:butt;stroke-linejoin:miter;stroke:rgb(14.999619%,28.999771%,50.000763%);stroke-opacity:0.7;stroke-miterlimit:3.25;" d="M 344.675781 96.445312 L 174.8125 147.664062 "/>
<path style="fill:none;stroke-width:1;stroke-linecap:butt;stroke-linejoin:miter;stroke:rgb(14.999619%,28.999771%,50.000763%);stroke-opacity:0.7;stroke-miterlimit:3.25;" d="M 346.253906 98.5 L 268.53125 224.769531 "/>
<path style="fill:none;stroke-width:1;stroke-linecap:butt;stroke-linejoin:miter;stroke:rgb(14.999619%,28.999771%,50.000763%);stroke-opacity:0.7;stroke-miterlimit:3.25;" d="M 344.867188 96.945312 L 240.183594 146.144531 "/>
<path style="fill:none;stroke-width:1;stroke-linecap:butt;stroke-linejoin:miter;stroke:rgb(14.999619%,28.999771%,50.000763%);stroke-opacity:0.7;stroke-miterlimit:3.25;" d="M 344.625 94.519531 L 165.980469 50.535156 "/>
<path style="fill:none;stroke-width:1;stroke-linecap:butt;stroke-linejoin:miter;stroke:rgb(14.999619%,28.999771%,50.000763%);stroke-opacity:0.7;stroke-miterlimit:3.25;" d="M 347.976562 99.039062 L 340.402344 241.835938 "/>
<path style="fill:none;stroke-width:1;stroke-linecap:butt;stroke-linejoin:miter;stroke:rgb(14.999619%,28.999771%,50.000763%);stroke-opacity:0.7;stroke-miterlimit:3.25;" d="M 344.902344 93.761719 L 256.570312 49.703125 "/>
<path style="fill:none;stroke-width:1;stroke-linecap:butt;stroke-linejoin:miter;stroke:rgb(14.999619%,28.999771%,50.000763%);stroke-opacity:0.7;stroke-miterlimit:3.25;" d="M 133.589844 236.949219 L 169.882812 152.074219 "/>
<path style="fill:none;stroke-width:1;stroke-linecap:butt;stroke-linejoin:miter;stroke:rgb(14.999619%,28.999771%,50.000763%);stroke-opacity:0.7;stroke-miterlimit:3.25;" d="M 135.789062 239.96875 L 262.980469 228.214844 "/>
<path style="fill:none;stroke-width:1;stroke-linecap:butt;stroke-linejoin:miter;stroke:rgb(14.999619%,28.999771%,50.000763%);stroke-opacity:0.7;stroke-miterlimit:3.25;" d="M 134.886719 237.886719 L 234.148438 150.113281 "/>
<path style="fill:none;stroke-width:1;stroke-linecap:butt;stroke-linejoin:miter;stroke:rgb(14.999619%,28.999771%,50.000763%);stroke-opacity:0.7;stroke-miterlimit:3.25;" d="M 131.746094 236.679688 L 122.390625 153.351562 "/>
<path style="fill:none;stroke-width:1;stroke-linecap:butt;stroke-linejoin:miter;stroke:rgb(14.999619%,28.999771%,50.000763%);stroke-opacity:0.7;stroke-miterlimit:3.25;" d="M 135.488281 238.820312 L 191.542969 213.855469 "/>
<path style="fill:none;stroke-width:1;stroke-linecap:butt;stroke-linejoin:miter;stroke:rgb(14.999619%,28.999771%,50.000763%);stroke-opacity:0.7;stroke-miterlimit:3.25;" d="M 132.726562 236.699219 L 161.863281 53.265625 "/>
<path style="fill:none;stroke-width:1;stroke-linecap:butt;stroke-linejoin:miter;stroke:rgb(14.999619%,28.999771%,50.000763%);stroke-opacity:0.7;stroke-miterlimit:3.25;" d="M 129.136719 238.25 L 13.847656 159.734375 "/>
<path style="fill:none;stroke-width:1;stroke-linecap:butt;stroke-linejoin:miter;stroke:rgb(14.999619%,28.999771%,50.000763%);stroke-opacity:0.7;stroke-miterlimit:3.25;" d="M 130.457031 243.539062 L 103.550781 294.878906 "/>
<path style="fill:none;stroke-width:1;stroke-linecap:butt;stroke-linejoin:miter;stroke:rgb(14.999619%,28.999771%,50.000763%);stroke-opacity:0.7;stroke-miterlimit:3.25;" d="M 174.125 151.050781 L 263.808594 225.546875 "/>
<path style="fill:none;stroke-width:1;stroke-linecap:butt;stroke-linejoin:miter;stroke:rgb(14.999619%,28.999771%,50.000763%);stroke-opacity:0.7;stroke-miterlimit:3.25;" d="M 174.96875 148.660156 L 233.230469 147.753906 "/>
<path style="fill:none;stroke-width:1;stroke-linecap:butt;stroke-linejoin:miter;stroke:rgb(14.999619%,28.999771%,50.000763%);stroke-opacity:0.7;stroke-miterlimit:3.25;" d="M 167.667969 148.792969 L 125.632812 149.648438 "/>
<path style="fill:none;stroke-width:1;stroke-linecap:butt;stroke-linejoin:miter;stroke:rgb(14.999619%,28.999771%,50.000763%);stroke-opacity:0.7;stroke-miterlimit:3.25;" d="M 167.671875 148.921875 L 14.476562 157.472656 "/>
<path style="fill:none;stroke-width:1;stroke-linecap:butt;stroke-linejoin:miter;stroke:rgb(14.999619%,28.999771%,50.000763%);stroke-opacity:0.7;stroke-miterlimit:3.25;" d="M 173.621094 145.886719 L 250.996094 50.902344 "/>
<path style="fill:none;stroke-width:1;stroke-linecap:butt;stroke-linejoin:miter;stroke:rgb(14.999619%,28.999771%,50.000763%);stroke-opacity:0.7;stroke-miterlimit:3.25;" d="M 169.777344 152.027344 L 103.394531 294.800781 "/>
<path style="fill:none;stroke-width:1;stroke-linecap:butt;stroke-linejoin:miter;stroke:rgb(14.999619%,28.999771%,50.000763%);stroke-opacity:0.7;stroke-miterlimit:3.25;" d="M 168.242188 150.6875 L 67.65625 215.09375 "/>
<path style="fill:none;stroke-width:1;stroke-linecap:butt;stroke-linejoin:miter;stroke:rgb(14.999619%,28.999771%,50.000763%);stroke-opacity:0.7;stroke-miterlimit:3.25;" d="M 169.507812 145.546875 L 94.40625 13.714844 "/>
<path style="fill:none;stroke-width:1;stroke-linecap:butt;stroke-linejoin:miter;stroke:rgb(14.999619%,28.999771%,50.000763%);stroke-opacity:0.7;stroke-miterlimit:3.25;" d="M 265.347656 224.457031 L 238.152344 151.117188 "/>
<path style="fill:none;stroke-width:1;stroke-linecap:butt;stroke-linejoin:miter;stroke:rgb(14.999619%,28.999771%,50.000763%);stroke-opacity:0.7;stroke-miterlimit:3.25;" d="M 263.40625 226.144531 L 125.195312 151.460938 "/>
<path style="fill:none;stroke-width:1;stroke-linecap:butt;stroke-linejoin:miter;stroke:rgb(14.999619%,28.999771%,50.000763%);stroke-opacity:0.7;stroke-miterlimit:3.25;" d="M 263.050781 227.109375 L 198.445312 213.140625 "/>
<path style="fill:none;stroke-width:1;stroke-linecap:butt;stroke-linejoin:miter;stroke:rgb(14.999619%,28.999771%,50.000763%);stroke-opacity:0.7;stroke-miterlimit:3.25;" d="M 270.167969 228.726562 L 336.660156 244.632812 "/>
<path style="fill:none;stroke-width:1;stroke-linecap:butt;stroke-linejoin:miter;stroke:rgb(14.999619%,28.999771%,50.000763%);stroke-opacity:0.7;stroke-miterlimit:3.25;" d="M 266.347656 224.238281 L 253.574219 51.714844 "/>
<path style="fill:none;stroke-width:1;stroke-linecap:butt;stroke-linejoin:miter;stroke:rgb(14.999619%,28.999771%,50.000763%);stroke-opacity:0.7;stroke-miterlimit:3.25;" d="M 263.257812 229.308594 L 105.214844 296.679688 "/>
<path style="fill:none;stroke-width:1;stroke-linecap:butt;stroke-linejoin:miter;stroke:rgb(14.999619%,28.999771%,50.000763%);stroke-opacity:0.7;stroke-miterlimit:3.25;" d="M 234.894531 150.757812 L 196.863281 209.308594 "/>
<path style="fill:none;stroke-width:1;stroke-linecap:butt;stroke-linejoin:miter;stroke:rgb(14.999619%,28.999771%,50.000763%);stroke-opacity:0.7;stroke-miterlimit:3.25;" d="M 239.53125 150.207031 L 337.558594 242.972656 "/>
<path style="fill:none;stroke-width:1;stroke-linecap:butt;stroke-linejoin:miter;stroke:rgb(14.999619%,28.999771%,50.000763%);stroke-opacity:0.7;stroke-miterlimit:3.25;" d="M 237.476562 144.09375 L 252.710938 51.675781 "/>
<path style="fill:none;stroke-width:1;stroke-linecap:butt;stroke-linejoin:miter;stroke:rgb(14.999619%,28.999771%,50.000763%);stroke-opacity:0.7;stroke-miterlimit:3.25;" d="M 234.441406 150.414062 L 104.292969 295.394531 "/>
<path style="fill:none;stroke-width:1;stroke-linecap:butt;stroke-linejoin:miter;stroke:rgb(14.999619%,28.999771%,50.000763%);stroke-opacity:0.7;stroke-miterlimit:3.25;" d="M 233.496094 149.058594 L 67.96875 215.699219 "/>
<path style="fill:none;stroke-width:1;stroke-linecap:butt;stroke-linejoin:miter;stroke:rgb(14.999619%,28.999771%,50.000763%);stroke-opacity:0.7;stroke-miterlimit:3.25;" d="M 234.234375 145.179688 L 95.246094 13.058594 "/>
<path style="fill:none;stroke-width:1;stroke-linecap:butt;stroke-linejoin:miter;stroke:rgb(14.999619%,28.999771%,50.000763%);stroke-opacity:0.7;stroke-miterlimit:3.25;" d="M 124.75 152.101562 L 192.109375 209.988281 "/>
<path style="fill:none;stroke-width:1;stroke-linecap:butt;stroke-linejoin:miter;stroke:rgb(14.999619%,28.999771%,50.000763%);stroke-opacity:0.7;stroke-miterlimit:3.25;" d="M 125.324219 151.191406 L 336.867188 244.015625 "/>
<path style="fill:none;stroke-width:1;stroke-linecap:butt;stroke-linejoin:miter;stroke:rgb(14.999619%,28.999771%,50.000763%);stroke-opacity:0.7;stroke-miterlimit:3.25;" d="M 118.339844 149.984375 L 14.472656 157.417969 "/>
<path style="fill:none;stroke-width:1;stroke-linecap:butt;stroke-linejoin:miter;stroke:rgb(14.999619%,28.999771%,50.000763%);stroke-opacity:0.7;stroke-miterlimit:3.25;" d="M 124.871094 147.488281 L 250.417969 50.308594 "/>
<path style="fill:none;stroke-width:1;stroke-linecap:butt;stroke-linejoin:miter;stroke:rgb(14.999619%,28.999771%,50.000763%);stroke-opacity:0.7;stroke-miterlimit:3.25;" d="M 121.492188 153.339844 L 102.347656 294.492188 "/>
<path style="fill:none;stroke-width:1;stroke-linecap:butt;stroke-linejoin:miter;stroke:rgb(14.999619%,28.999771%,50.000763%);stroke-opacity:0.7;stroke-miterlimit:3.25;" d="M 119.613281 152.503906 L 66.949219 214.285156 "/>
<path style="fill:none;stroke-width:1;stroke-linecap:butt;stroke-linejoin:miter;stroke:rgb(14.999619%,28.999771%,50.000763%);stroke-opacity:0.7;stroke-miterlimit:3.25;" d="M 121.226562 146.152344 L 93.355469 14.117188 "/>
<path style="fill:none;stroke-width:1;stroke-linecap:butt;stroke-linejoin:miter;stroke:rgb(14.999619%,28.999771%,50.000763%);stroke-opacity:0.7;stroke-miterlimit:3.25;" d="M 194.164062 208.789062 L 163.148438 53.242188 "/>
<path style="fill:none;stroke-width:1;stroke-linecap:butt;stroke-linejoin:miter;stroke:rgb(14.999619%,28.999771%,50.000763%);stroke-opacity:0.7;stroke-miterlimit:3.25;" d="M 198.433594 213.179688 L 336.652344 244.671875 "/>
<path style="fill:none;stroke-width:1;stroke-linecap:butt;stroke-linejoin:miter;stroke:rgb(14.999619%,28.999771%,50.000763%);stroke-opacity:0.7;stroke-miterlimit:3.25;" d="M 191.375 211.328125 L 14.328125 158.71875 "/>
<path style="fill:none;stroke-width:1;stroke-linecap:butt;stroke-linejoin:miter;stroke:rgb(14.999619%,28.999771%,50.000763%);stroke-opacity:0.7;stroke-miterlimit:3.25;" d="M 196.097656 208.929688 L 252.082031 51.511719 "/>
<path style="fill:none;stroke-width:1;stroke-linecap:butt;stroke-linejoin:miter;stroke:rgb(14.999619%,28.999771%,50.000763%);stroke-opacity:0.7;stroke-miterlimit:3.25;" d="M 191.226562 212.5 L 68.230469 216.929688 "/>
<path style="fill:none;stroke-width:1;stroke-linecap:butt;stroke-linejoin:miter;stroke:rgb(14.999619%,28.999771%,50.000763%);stroke-opacity:0.7;stroke-miterlimit:3.25;" d="M 160.59375 52.8125 L 66.421875 213.910156 "/>
<path style="fill:none;stroke-width:1;stroke-linecap:butt;stroke-linejoin:miter;stroke:rgb(14.999619%,28.999771%,50.000763%);stroke-opacity:0.7;stroke-miterlimit:3.25;" d="M 159.25 47.878906 L 95.785156 12.328125 "/>
<path style="fill:none;stroke-width:1;stroke-linecap:butt;stroke-linejoin:miter;stroke:rgb(14.999619%,28.999771%,50.000763%);stroke-opacity:0.7;stroke-miterlimit:3.25;" d="M 12.816406 160.742188 L 99.871094 295.046875 "/>
<path style="fill:none;stroke-width:1;stroke-linecap:butt;stroke-linejoin:miter;stroke:rgb(14.999619%,28.999771%,50.000763%);stroke-opacity:0.7;stroke-miterlimit:3.25;" d="M 13.28125 160.382812 L 62.132812 214.355469 "/>
<path style="fill:none;stroke-width:1;stroke-linecap:butt;stroke-linejoin:miter;stroke:rgb(14.999619%,28.999771%,50.000763%);stroke-opacity:0.7;stroke-miterlimit:3.25;" d="M 12.605469 154.488281 L 90.828125 13.734375 "/>
<path style="fill:none;stroke-width:1;stroke-linecap:butt;stroke-linejoin:miter;stroke:rgb(14.999619%,28.999771%,50.000763%);stroke-opacity:0.7;stroke-miterlimit:3.25;" d="M 249.75 47.242188 L 96.15625 11.375 "/>
<path style="fill:none;stroke-width:1;stroke-linecap:butt;stroke-linejoin:miter;stroke:rgb(14.999619%,28.999771%,50.000763%);stroke-opacity:0.7;stroke-miterlimit:3.25;" d="M 100.332031 294.792969 L 66.105469 220.378906 "/>
<path style="fill-rule:evenodd;fill:rgb(63.99939%,70.400549%,80%);fill-opacity:1;stroke-width:1;stroke-linecap:square;stroke-linejoin:miter;stroke:rgb(0%,0%,0%);stroke-opacity:0.7;stroke-miterlimit:3.25;" d="M 209.589844 337.175781 C 209.589844 336.207031 209.203125 335.277344 208.519531 334.59375 C 207.835938 333.910156 206.90625 333.523438 205.9375 333.523438 C 204.96875 333.523438 204.042969 333.910156 203.359375 334.59375 C 202.671875 335.277344 202.289062 336.207031 202.289062 337.175781 C 202.289062 338.144531 202.671875 339.070312 203.359375 339.757812 C 204.042969 340.441406 204.96875 340.824219 205.9375 340.824219 C 206.90625 340.824219 207.835938 340.441406 208.519531 339.757812 C 209.203125 339.070312 209.589844 338.144531 209.589844 337.175781 Z M 209.589844 337.175781 "/>
<path style="fill-rule:evenodd;fill:rgb(63.99939%,70.400549%,80%);fill-opacity:1;stroke-width:1;stroke-linecap:square;stroke-linejoin:miter;stroke:rgb(0%,0%,0%);stroke-opacity:0.7;stroke-miterlimit:3.25;" d="M 351.820312 95.390625 C 351.820312 94.425781 351.433594 93.496094 350.75 92.8125 C 350.066406 92.125 349.136719 91.742188 348.167969 91.742188 C 347.203125 91.742188 346.273438 92.125 345.589844 92.8125 C 344.902344 93.496094 344.519531 94.425781 344.519531 95.390625 C 344.519531 96.359375 344.902344 97.289062 345.589844 97.972656 C 346.273438 98.660156 347.203125 99.042969 348.167969 99.042969 C 349.136719 99.042969 350.066406 98.660156 350.75 97.972656 C 351.433594 97.289062 351.820312 96.359375 351.820312 95.390625 Z M 351.820312 95.390625 "/>
<path style="fill-rule:evenodd;fill:rgb(63.99939%,70.400549%,80%);fill-opacity:1;stroke-width:1;stroke-linecap:square;stroke-linejoin:miter;stroke:rgb(0%,0%,0%);stroke-opacity:0.7;stroke-miterlimit:3.25;" d="M 135.804688 240.304688 C 135.804688 239.339844 135.417969 238.410156 134.734375 237.726562 C 134.050781 237.039062 133.121094 236.65625 132.152344 236.65625 C 131.183594 236.65625 130.257812 237.039062 129.570312 237.726562 C 128.886719 238.410156 128.503906 239.339844 128.503906 240.304688 C 128.503906 241.273438 128.886719 242.203125 129.570312 242.886719 C 130.257812 243.574219 131.183594 243.957031 132.152344 243.957031 C 133.121094 243.957031 134.050781 243.574219 134.734375 242.886719 C 135.417969 242.203125 135.804688 241.273438 135.804688 240.304688 Z M 135.804688 240.304688 "/>
<path style="fill-rule:evenodd;fill:rgb(63.99939%,70.400549%,80%);fill-opacity:1;stroke-width:1;stroke-linecap:square;stroke-linejoin:miter;stroke:rgb(0%,0%,0%);stroke-opacity:0.7;stroke-miterlimit:3.25;" d="M 174.96875 148.71875 C 174.96875 147.75 174.582031 146.820312 173.898438 146.136719 C 173.214844 145.449219 172.285156 145.066406 171.316406 145.066406 C 170.347656 145.066406 169.417969 145.449219 168.734375 146.136719 C 168.050781 146.820312 167.667969 147.75 167.667969 148.71875 C 167.667969 149.683594 168.050781 150.613281 168.734375 151.296875 C 169.417969 151.984375 170.347656 152.367188 171.316406 152.367188 C 172.285156 152.367188 173.214844 151.984375 173.898438 151.296875 C 174.582031 150.613281 174.96875 149.683594 174.96875 148.71875 Z M 174.96875 148.71875 "/>
<path style="fill-rule:evenodd;fill:rgb(63.99939%,70.400549%,80%);fill-opacity:1;stroke-width:1;stroke-linecap:square;stroke-linejoin:miter;stroke:rgb(0%,0%,0%);stroke-opacity:0.7;stroke-miterlimit:3.25;" d="M 270.269531 227.878906 C 270.269531 226.910156 269.882812 225.980469 269.199219 225.296875 C 268.515625 224.613281 267.585938 224.226562 266.617188 224.226562 C 265.648438 224.226562 264.722656 224.613281 264.035156 225.296875 C 263.351562 225.980469 262.96875 226.910156 262.96875 227.878906 C 262.96875 228.847656 263.351562 229.777344 264.035156 230.460938 C 264.722656 231.144531 265.648438 231.53125 266.617188 231.53125 C 267.585938 231.53125 268.515625 231.144531 269.199219 230.460938 C 269.882812 229.777344 270.269531 228.847656 270.269531 227.878906 Z M 270.269531 227.878906 "/>
<path style="fill-rule:evenodd;fill:rgb(63.99939%,70.400549%,80%);fill-opacity:1;stroke-width:1;stroke-linecap:square;stroke-linejoin:miter;stroke:rgb(0%,0%,0%);stroke-opacity:0.7;stroke-miterlimit:3.25;" d="M 240.53125 147.695312 C 240.53125 146.726562 240.148438 145.800781 239.464844 145.113281 C 238.777344 144.429688 237.851562 144.046875 236.882812 144.046875 C 235.914062 144.046875 234.984375 144.429688 234.300781 145.113281 C 233.617188 145.800781 233.230469 146.726562 233.230469 147.695312 C 233.230469 148.664062 233.617188 149.59375 234.300781 150.277344 C 234.984375 150.960938 235.914062 151.347656 236.882812 151.347656 C 237.851562 151.347656 238.777344 150.960938 239.464844 150.277344 C 240.148438 149.59375 240.53125 148.664062 240.53125 147.695312 Z M 240.53125 147.695312 "/>
<path style="fill-rule:evenodd;fill:rgb(63.99939%,70.400549%,80%);fill-opacity:1;stroke-width:1;stroke-linecap:square;stroke-linejoin:miter;stroke:rgb(0%,0%,0%);stroke-opacity:0.7;stroke-miterlimit:3.25;" d="M 125.632812 149.722656 C 125.632812 148.753906 125.25 147.828125 124.5625 147.144531 C 123.878906 146.457031 122.949219 146.074219 121.984375 146.074219 C 121.015625 146.074219 120.085938 146.457031 119.402344 147.144531 C 118.714844 147.828125 118.332031 148.753906 118.332031 149.722656 C 118.332031 150.691406 118.714844 151.621094 119.402344 152.304688 C 120.085938 152.988281 121.015625 153.375 121.984375 153.375 C 122.949219 153.375 123.878906 152.988281 124.5625 152.304688 C 125.25 151.621094 125.632812 150.691406 125.632812 149.722656 Z M 125.632812 149.722656 "/>
<path style="fill-rule:evenodd;fill:rgb(63.99939%,70.400549%,80%);fill-opacity:1;stroke-width:1;stroke-linecap:square;stroke-linejoin:miter;stroke:rgb(0%,0%,0%);stroke-opacity:0.7;stroke-miterlimit:3.25;" d="M 198.527344 212.367188 C 198.527344 211.398438 198.140625 210.472656 197.457031 209.785156 C 196.773438 209.101562 195.84375 208.71875 194.875 208.71875 C 193.90625 208.71875 192.980469 209.101562 192.292969 209.785156 C 191.609375 210.472656 191.226562 211.398438 191.226562 212.367188 C 191.226562 213.335938 191.609375 214.265625 192.292969 214.949219 C 192.980469 215.632812 193.90625 216.019531 194.875 216.019531 C 195.84375 216.019531 196.773438 215.632812 197.457031 214.949219 C 198.140625 214.265625 198.527344 213.335938 198.527344 212.367188 Z M 198.527344 212.367188 "/>
<path style="fill-rule:evenodd;fill:rgb(63.99939%,70.400549%,80%);fill-opacity:1;stroke-width:1;stroke-linecap:square;stroke-linejoin:miter;stroke:rgb(0%,0%,0%);stroke-opacity:0.7;stroke-miterlimit:3.25;" d="M 166.085938 49.664062 C 166.085938 48.695312 165.699219 47.765625 165.015625 47.082031 C 164.332031 46.394531 163.402344 46.011719 162.433594 46.011719 C 161.464844 46.011719 160.539062 46.394531 159.855469 47.082031 C 159.167969 47.765625 158.785156 48.695312 158.785156 49.664062 C 158.785156 50.628906 159.167969 51.558594 159.855469 52.242188 C 160.539062 52.929688 161.464844 53.3125 162.433594 53.3125 C 163.402344 53.3125 164.332031 52.929688 165.015625 52.242188 C 165.699219 51.558594 166.085938 50.628906 166.085938 49.664062 Z M 166.085938 49.664062 "/>
<path style="fill-rule:evenodd;fill:rgb(63.99939%,70.400549%,80%);fill-opacity:1;stroke-width:1;stroke-linecap:square;stroke-linejoin:miter;stroke:rgb(0%,0%,0%);stroke-opacity:0.7;stroke-miterlimit:3.25;" d="M 343.859375 245.484375 C 343.859375 244.515625 343.476562 243.585938 342.792969 242.902344 C 342.105469 242.21875 341.179688 241.832031 340.210938 241.832031 C 339.242188 241.832031 338.3125 242.21875 337.628906 242.902344 C 336.945312 243.585938 336.558594 244.515625 336.558594 245.484375 C 336.558594 246.449219 336.945312 247.378906 337.628906 248.0625 C 338.3125 248.75 339.242188 249.132812 340.210938 249.132812 C 341.179688 249.132812 342.105469 248.75 342.792969 248.0625 C 343.476562 247.378906 343.859375 246.449219 343.859375 245.484375 Z M 343.859375 245.484375 "/>
<path style="fill-rule:evenodd;fill:rgb(63.99939%,70.400549%,80%);fill-opacity:1;stroke-width:1;stroke-linecap:square;stroke-linejoin:miter;stroke:rgb(0%,0%,0%);stroke-opacity:0.7;stroke-miterlimit:3.25;" d="M 14.480469 157.675781 C 14.480469 156.710938 14.097656 155.78125 13.410156 155.097656 C 12.726562 154.410156 11.796875 154.027344 10.832031 154.027344 C 9.863281 154.027344 8.933594 154.410156 8.25 155.097656 C 7.566406 155.78125 7.179688 156.710938 7.179688 157.675781 C 7.179688 158.644531 7.566406 159.574219 8.25 160.257812 C 8.933594 160.945312 9.863281 161.328125 10.832031 161.328125 C 11.796875 161.328125 12.726562 160.945312 13.410156 160.257812 C 14.097656 159.574219 14.480469 158.644531 14.480469 157.675781 Z M 14.480469 157.675781 "/>
<path style="fill-rule:evenodd;fill:rgb(63.99939%,70.400549%,80%);fill-opacity:1;stroke-width:1;stroke-linecap:square;stroke-linejoin:miter;stroke:rgb(0%,0%,0%);stroke-opacity:0.7;stroke-miterlimit:3.25;" d="M 256.953125 48.074219 C 256.953125 47.105469 256.570312 46.175781 255.886719 45.492188 C 255.199219 44.808594 254.273438 44.421875 253.304688 44.421875 C 252.335938 44.421875 251.40625 44.808594 250.722656 45.492188 C 250.039062 46.175781 249.652344 47.105469 249.652344 48.074219 C 249.652344 49.039062 250.039062 49.96875 250.722656 50.652344 C 251.40625 51.339844 252.335938 51.722656 253.304688 51.722656 C 254.273438 51.722656 255.199219 51.339844 255.886719 50.652344 C 256.570312 49.96875 256.953125 49.039062 256.953125 48.074219 Z M 256.953125 48.074219 "/>
<path style="fill-rule:evenodd;fill:rgb(63.99939%,70.400549%,80%);fill-opacity:1;stroke-width:1;stroke-linecap:square;stroke-linejoin:miter;stroke:rgb(0%,0%,0%);stroke-opacity:0.7;stroke-miterlimit:3.25;" d="M 105.507812 298.109375 C 105.507812 297.140625 105.121094 296.214844 104.4375 295.53125 C 103.753906 294.84375 102.824219 294.460938 101.855469 294.460938 C 100.886719 294.460938 99.960938 294.84375 99.273438 295.53125 C 98.589844 296.214844 98.207031 297.140625 98.207031 298.109375 C 98.207031 299.078125 98.589844 300.007812 99.273438 300.691406 C 99.960938 301.375 100.886719 301.761719 101.855469 301.761719 C 102.824219 301.761719 103.753906 301.375 104.4375 300.691406 C 105.121094 300.007812 105.507812 299.078125 105.507812 298.109375 Z M 105.507812 298.109375 "/>
<path style="fill-rule:evenodd;fill:rgb(63.99939%,70.400549%,80%);fill-opacity:1;stroke-width:1;stroke-linecap:square;stroke-linejoin:miter;stroke:rgb(0%,0%,0%);stroke-opacity:0.7;stroke-miterlimit:3.25;" d="M 68.230469 217.0625 C 68.230469 216.09375 67.847656 215.164062 67.164062 214.480469 C 66.476562 213.796875 65.550781 213.410156 64.582031 213.410156 C 63.613281 213.410156 62.683594 213.796875 62 214.480469 C 61.316406 215.164062 60.929688 216.09375 60.929688 217.0625 C 60.929688 218.03125 61.316406 218.957031 62 219.644531 C 62.683594 220.328125 63.613281 220.710938 64.582031 220.710938 C 65.550781 220.710938 66.476562 220.328125 67.164062 219.644531 C 67.847656 218.957031 68.230469 218.03125 68.230469 217.0625 Z M 68.230469 217.0625 "/>
<path style="fill-rule:evenodd;fill:rgb(63.99939%,70.400549%,80%);fill-opacity:1;stroke-width:1;stroke-linecap:square;stroke-linejoin:miter;stroke:rgb(0%,0%,0%);stroke-opacity:0.7;stroke-miterlimit:3.25;" d="M 96.25 10.542969 C 96.25 9.574219 95.867188 8.648438 95.183594 7.960938 C 94.496094 7.277344 93.570312 6.894531 92.601562 6.894531 C 91.632812 6.894531 90.703125 7.277344 90.019531 7.960938 C 89.335938 8.648438 88.949219 9.574219 88.949219 10.542969 C 88.949219 11.511719 89.335938 12.441406 90.019531 13.125 C 90.703125 13.808594 91.632812 14.195312 92.601562 14.195312 C 93.570312 14.195312 94.496094 13.808594 95.183594 13.125 C 95.867188 12.441406 96.25 11.511719 96.25 10.542969 Z M 96.25 10.542969 "/>
</g>
</svg>
