<?xml version="1.0" encoding="UTF-8"?>
<svg xmlns="http://www.w3.org/2000/svg" xmlns:xlink="http://www.w3.org/1999/xlink" width="360pt" height="268pt" viewBox="0 0 360 268" version="1.1">
<g id="surface11">
<path style="fill:none;stroke-width:1;stroke-linecap:butt;stroke-linejoin:miter;stroke:rgb(14.999619%,28.999771%,50.000763%);stroke-opacity:0.7;stroke-miterlimit:3.25;" d="M 111.574219 77.519531 L 104.785156 13.667969 "/>
<path style="fill:none;stroke-width:1;stroke-linecap:butt;stroke-linejoin:miter;stroke:rgb(14.999619%,28.999771%,50.000763%);stroke-opacity:0.7;stroke-miterlimit:3.25;" d="M 110.222656 83.835938 L 51.097656 185.527344 "/>
<path style="fill:none;stroke-width:1;stroke-linecap:butt;stroke-linejoin:miter;stroke:rgb(14.999619%,28.999771%,50.000763%);stroke-opacity:0.7;stroke-miterlimit:3.25;" d="M 108.542969 80.691406 L 13.96875 74.945312 "/>
<path style="fill:none;stroke-width:1;stroke-linecap:butt;stroke-linejoin:miter;stroke:rgb(14.999619%,28.999771%,50.000763%);stroke-opacity:0.7;stroke-miterlimit:3.25;" d="M 113.621094 83.84375 L 157.167969 159.773438 "/>
<path style="fill:none;stroke-width:1;stroke-linecap:butt;stroke-linejoin:miter;stroke:rgb(14.999619%,28.999771%,50.000763%);stroke-opacity:0.7;stroke-miterlimit:3.25;" d="M 115.175781 81.898438 L 254.648438 124.9375 "/>
<path style="fill:none;stroke-width:1;stroke-linecap:butt;stroke-linejoin:miter;stroke:rgb(14.999619%,28.999771%,50.000763%);stroke-opacity:0.7;stroke-miterlimit:3.25;" d="M 104.242188 13.679688 L 97.273438 142.726562 "/>
<path style="fill:none;stroke-width:1;stroke-linecap:butt;stroke-linejoin:miter;stroke:rgb(14.999619%,28.999771%,50.000763%);stroke-opacity:0.7;stroke-miterlimit:3.25;" d="M 101.628906 12.210938 L 13.375 72.816406 "/>
<path style="fill:none;stroke-width:1;stroke-linecap:butt;stroke-linejoin:miter;stroke:rgb(14.999619%,28.999771%,50.000763%);stroke-opacity:0.7;stroke-miterlimit:3.25;" d="M 107.605469 11.484375 L 237.382812 60.1875 "/>
<path style="fill:none;stroke-width:1;stroke-linecap:butt;stroke-linejoin:miter;stroke:rgb(14.999619%,28.999771%,50.000763%);stroke-opacity:0.7;stroke-miterlimit:3.25;" d="M 94.46875 143.957031 L 13.195312 76.902344 "/>
<path style="fill:none;stroke-width:1;stroke-linecap:butt;stroke-linejoin:miter;stroke:rgb(14.999619%,28.999771%,50.000763%);stroke-opacity:0.7;stroke-miterlimit:3.25;" d="M 100.371094 146.996094 L 228.640625 181.390625 "/>
<path style="fill:none;stroke-width:1;stroke-linecap:butt;stroke-linejoin:miter;stroke:rgb(14.999619%,28.999771%,50.000763%);stroke-opacity:0.7;stroke-miterlimit:3.25;" d="M 99.34375 148.660156 L 168.175781 226.304688 "/>
<path style="fill:none;stroke-width:1;stroke-linecap:butt;stroke-linejoin:miter;stroke:rgb(14.999619%,28.999771%,50.000763%);stroke-opacity:0.7;stroke-miterlimit:3.25;" d="M 97.660156 149.464844 L 115.351562 253.125 "/>
<path style="fill:none;stroke-width:1;stroke-linecap:butt;stroke-linejoin:miter;stroke:rgb(14.999619%,28.999771%,50.000763%);stroke-opacity:0.7;stroke-miterlimit:3.25;" d="M 48.292969 185.25 L 11.671875 77.957031 "/>
<path style="fill:none;stroke-width:1;stroke-linecap:butt;stroke-linejoin:miter;stroke:rgb(14.999619%,28.999771%,50.000763%);stroke-opacity:0.7;stroke-miterlimit:3.25;" d="M 52.695312 187.683594 L 155.550781 163.496094 "/>
<path style="fill:none;stroke-width:1;stroke-linecap:butt;stroke-linejoin:miter;stroke:rgb(14.999619%,28.999771%,50.000763%);stroke-opacity:0.7;stroke-miterlimit:3.25;" d="M 52.613281 189.539062 L 167.207031 227.773438 "/>
<path style="fill:none;stroke-width:1;stroke-linecap:butt;stroke-linejoin:miter;stroke:rgb(14.999619%,28.999771%,50.000763%);stroke-opacity:0.7;stroke-miterlimit:3.25;" d="M 51.765625 190.890625 L 113.546875 254.042969 "/>
<path style="fill:none;stroke-width:1;stroke-linecap:butt;stroke-linejoin:miter;stroke:rgb(14.999619%,28.999771%,50.000763%);stroke-opacity:0.7;stroke-miterlimit:3.25;" d="M 228.636719 181.394531 L 162.140625 163.597656 "/>
<path style="fill:none;stroke-width:1;stroke-linecap:butt;stroke-linejoin:miter;stroke:rgb(14.999619%,28.999771%,50.000763%);stroke-opacity:0.7;stroke-miterlimit:3.25;" d="M 233.34375 179.1875 L 256.472656 129.023438 "/>
<path style="fill:none;stroke-width:1;stroke-linecap:butt;stroke-linejoin:miter;stroke:rgb(14.999619%,28.999771%,50.000763%);stroke-opacity:0.7;stroke-miterlimit:3.25;" d="M 234.839844 180.539062 L 345.503906 114.878906 "/>
<path style="fill:none;stroke-width:1;stroke-linecap:butt;stroke-linejoin:miter;stroke:rgb(14.999619%,28.999771%,50.000763%);stroke-opacity:0.7;stroke-miterlimit:3.25;" d="M 232.160156 178.882812 L 240.320312 64.765625 "/>
<path style="fill:none;stroke-width:1;stroke-linecap:butt;stroke-linejoin:miter;stroke:rgb(14.999619%,28.999771%,50.000763%);stroke-opacity:0.7;stroke-miterlimit:3.25;" d="M 229.210938 184.324219 L 173.136719 226.796875 "/>
<path style="fill:none;stroke-width:1;stroke-linecap:butt;stroke-linejoin:miter;stroke:rgb(14.999619%,28.999771%,50.000763%);stroke-opacity:0.7;stroke-miterlimit:3.25;" d="M 229.058594 184.101562 L 118.78125 254.640625 "/>
<path style="fill:none;stroke-width:1;stroke-linecap:butt;stroke-linejoin:miter;stroke:rgb(14.999619%,28.999771%,50.000763%);stroke-opacity:0.7;stroke-miterlimit:3.25;" d="M 160.992188 160.078125 L 238.429688 64.023438 "/>
<path style="fill:none;stroke-width:1;stroke-linecap:butt;stroke-linejoin:miter;stroke:rgb(14.999619%,28.999771%,50.000763%);stroke-opacity:0.7;stroke-miterlimit:3.25;" d="M 159.445312 166.066406 L 169.84375 225.5 "/>
<path style="fill:none;stroke-width:1;stroke-linecap:butt;stroke-linejoin:miter;stroke:rgb(14.999619%,28.999771%,50.000763%);stroke-opacity:0.7;stroke-miterlimit:3.25;" d="M 157.445312 165.808594 L 117.335938 253.382812 "/>
<path style="fill:none;stroke-width:1;stroke-linecap:butt;stroke-linejoin:miter;stroke:rgb(14.999619%,28.999771%,50.000763%);stroke-opacity:0.7;stroke-miterlimit:3.25;" d="M 261.257812 125.464844 L 345.058594 113.621094 "/>
<path style="fill:none;stroke-width:1;stroke-linecap:butt;stroke-linejoin:miter;stroke:rgb(14.999619%,28.999771%,50.000763%);stroke-opacity:0.7;stroke-miterlimit:3.25;" d="M 257.011719 122.660156 L 241.441406 64.660156 "/>
<path style="fill:none;stroke-width:1;stroke-linecap:butt;stroke-linejoin:miter;stroke:rgb(14.999619%,28.999771%,50.000763%);stroke-opacity:0.7;stroke-miterlimit:3.25;" d="M 255.695312 128.527344 L 172.628906 226.257812 "/>
<path style="fill:none;stroke-width:1;stroke-linecap:butt;stroke-linejoin:miter;stroke:rgb(14.999619%,28.999771%,50.000763%);stroke-opacity:0.7;stroke-miterlimit:3.25;" d="M 345.359375 111.675781 L 243.625 62.847656 "/>
<path style="fill:none;stroke-width:1;stroke-linecap:butt;stroke-linejoin:miter;stroke:rgb(14.999619%,28.999771%,50.000763%);stroke-opacity:0.7;stroke-miterlimit:3.25;" d="M 167.398438 230.382812 L 118.949219 254.9375 "/>
<path style="fill-rule:evenodd;fill:rgb(63.99939%,70.400549%,80%);fill-opacity:1;stroke-width:1;stroke-linecap:square;stroke-linejoin:miter;stroke:rgb(0%,0%,0%);stroke-opacity:0.7;stroke-miterlimit:3.25;" d="M 115.328125 80.898438 C 115.328125 79.996094 114.96875 79.132812 114.332031 78.496094 C 113.695312 77.859375 112.832031 77.503906 111.929688 77.503906 C 111.03125 77.503906 110.167969 77.859375 109.53125 78.496094 C 108.894531 79.132812 108.535156 79.996094 108.535156 80.898438 C 108.535156 81.800781 108.894531 82.664062 109.53125 83.300781 C 110.167969 83.9375 111.03125 84.296875 111.929688 84.296875 C 112.832031 84.296875 113.695312 83.9375 114.332031 83.300781 C 114.96875 82.664062 115.328125 81.800781 115.328125 80.898438 Z M 115.328125 80.898438 "/>
<path style="fill-rule:evenodd;fill:rgb(63.99939%,70.400549%,80%);fill-opacity:1;stroke-width:1;stroke-linecap:square;stroke-linejoin:miter;stroke:rgb(0%,0%,0%);stroke-opacity:0.7;stroke-miterlimit:3.25;" d="M 107.824219 10.289062 C 107.824219 9.386719 107.464844 8.523438 106.828125 7.886719 C 106.191406 7.25 105.328125 6.894531 104.425781 6.894531 C 103.527344 6.894531 102.664062 7.25 102.023438 7.886719 C 101.386719 8.523438 101.03125 9.386719 101.03125 10.289062 C 101.03125 11.191406 101.386719 12.054688 102.023438 12.691406 C 102.664062 13.328125 103.527344 13.6875 104.425781 13.6875 C 105.328125 13.6875 106.191406 13.328125 106.828125 12.691406 C 107.464844 12.054688 107.824219 11.191406 107.824219 10.289062 Z M 107.824219 10.289062 "/>
<path style="fill-rule:evenodd;fill:rgb(63.99939%,70.400549%,80%);fill-opacity:1;stroke-width:1;stroke-linecap:square;stroke-linejoin:miter;stroke:rgb(0%,0%,0%);stroke-opacity:0.7;stroke-miterlimit:3.25;" d="M 100.484375 146.117188 C 100.484375 145.214844 100.128906 144.351562 99.492188 143.714844 C 98.855469 143.078125 97.988281 142.722656 97.089844 142.722656 C 96.1875 142.722656 95.324219 143.078125 94.6875 143.714844 C 94.050781 144.351562 93.691406 145.214844 93.691406 146.117188 C 93.691406 147.019531 94.050781 147.882812 94.6875 148.519531 C 95.324219 149.15625 96.1875 149.515625 97.089844 149.515625 C 97.988281 149.515625 98.855469 149.15625 99.492188 148.519531 C 100.128906 147.882812 100.484375 147.019531 100.484375 146.117188 Z M 100.484375 146.117188 "/>
<path style="fill-rule:evenodd;fill:rgb(63.99939%,70.400549%,80%);fill-opacity:1;stroke-width:1;stroke-linecap:square;stroke-linejoin:miter;stroke:rgb(0%,0%,0%);stroke-opacity:0.7;stroke-miterlimit:3.25;" d="M 52.789062 188.464844 C 52.789062 187.5625 52.429688 186.699219 51.792969 186.0625 C 51.15625 185.425781 50.292969 185.066406 49.390625 185.066406 C 48.488281 185.066406 47.625 185.425781 46.988281 186.0625 C 46.351562 186.699219 45.996094 187.5625 45.996094 188.464844 C 45.996094 189.363281 46.351562 190.226562 46.988281 190.863281 C 47.625 191.5 48.488281 191.859375 49.390625 191.859375 C 50.292969 191.859375 51.15625 191.5 51.792969 190.863281 C 52.429688 190.226562 52.789062 189.363281 52.789062 188.464844 Z M 52.789062 188.464844 "/>
<path style="fill-rule:evenodd;fill:rgb(63.99939%,70.400549%,80%);fill-opacity:1;stroke-width:1;stroke-linecap:square;stroke-linejoin:miter;stroke:rgb(0%,0%,0%);stroke-opacity:0.7;stroke-miterlimit:3.25;" d="M 13.972656 74.742188 C 13.972656 73.839844 13.613281 72.976562 12.976562 72.339844 C 12.339844 71.703125 11.476562 71.34375 10.578125 71.34375 C 9.675781 71.34375 8.8125 71.703125 8.175781 72.339844 C 7.539062 72.976562 7.179688 73.839844 7.179688 74.742188 C 7.179688 75.640625 7.539062 76.503906 8.175781 77.140625 C 8.8125 77.78125 9.675781 78.136719 10.578125 78.136719 C 11.476562 78.136719 12.339844 77.78125 12.976562 77.140625 C 13.613281 76.503906 13.972656 75.640625 13.972656 74.742188 Z M 13.972656 74.742188 "/>
<path style="fill-rule:evenodd;fill:rgb(63.99939%,70.400549%,80%);fill-opacity:1;stroke-width:1;stroke-linecap:square;stroke-linejoin:miter;stroke:rgb(0%,0%,0%);stroke-opacity:0.7;stroke-miterlimit:3.25;" d="M 235.316406 182.273438 C 235.316406 181.371094 234.957031 180.507812 234.320312 179.871094 C 233.683594 179.234375 232.820312 178.875 231.917969 178.875 C 231.019531 178.875 230.15625 179.234375 229.519531 179.871094 C 228.882812 180.507812 228.523438 181.371094 228.523438 182.273438 C 228.523438 183.171875 228.882812 184.035156 229.519531 184.671875 C 230.15625 185.3125 231.019531 185.667969 231.917969 185.667969 C 232.820312 185.667969 233.683594 185.3125 234.320312 184.671875 C 234.957031 184.035156 235.316406 183.171875 235.316406 182.273438 Z M 235.316406 182.273438 "/>
<path style="fill-rule:evenodd;fill:rgb(63.99939%,70.400549%,80%);fill-opacity:1;stroke-width:1;stroke-linecap:square;stroke-linejoin:miter;stroke:rgb(0%,0%,0%);stroke-opacity:0.7;stroke-miterlimit:3.25;" d="M 162.253906 162.71875 C 162.253906 161.820312 161.898438 160.957031 161.261719 160.320312 C 160.625 159.683594 159.757812 159.324219 158.859375 159.324219 C 157.957031 159.324219 157.09375 159.683594 156.457031 160.320312 C 155.820312 160.957031 155.460938 161.820312 155.460938 162.71875 C 155.460938 163.621094 155.820312 164.484375 156.457031 165.121094 C 157.09375 165.757812 157.957031 166.117188 158.859375 166.117188 C 159.757812 166.117188 160.625 165.757812 161.261719 165.121094 C 161.898438 164.484375 162.253906 163.621094 162.253906 162.71875 Z M 162.253906 162.71875 "/>
<path style="fill-rule:evenodd;fill:rgb(63.99939%,70.400549%,80%);fill-opacity:1;stroke-width:1;stroke-linecap:square;stroke-linejoin:miter;stroke:rgb(0%,0%,0%);stroke-opacity:0.7;stroke-miterlimit:3.25;" d="M 261.289062 125.941406 C 261.289062 125.039062 260.933594 124.175781 260.296875 123.539062 C 259.660156 122.902344 258.796875 122.542969 257.894531 122.542969 C 256.992188 122.542969 256.128906 122.902344 255.492188 123.539062 C 254.855469 124.175781 254.496094 125.039062 254.496094 125.941406 C 254.496094 126.839844 254.855469 127.703125 255.492188 128.339844 C 256.128906 128.976562 256.992188 129.335938 257.894531 129.335938 C 258.796875 129.335938 259.660156 128.976562 260.296875 128.339844 C 260.933594 127.703125 261.289062 126.839844 261.289062 125.941406 Z M 261.289062 125.941406 "/>
<path style="fill-rule:evenodd;fill:rgb(63.99939%,70.400549%,80%);fill-opacity:1;stroke-width:1;stroke-linecap:square;stroke-linejoin:miter;stroke:rgb(0%,0%,0%);stroke-opacity:0.7;stroke-miterlimit:3.25;" d="M 351.820312 113.144531 C 351.820312 112.242188 351.460938 111.378906 350.824219 110.742188 C 350.1875 110.105469 349.324219 109.75 348.421875 109.75 C 347.523438 109.75 346.660156 110.105469 346.023438 110.742188 C 345.386719 111.378906 345.027344 112.242188 345.027344 113.144531 C 345.027344 114.046875 345.386719 114.910156 346.023438 115.546875 C 346.660156 116.183594 347.523438 116.542969 348.421875 116.542969 C 349.324219 116.542969 350.1875 116.183594 350.824219 115.546875 C 351.460938 114.910156 351.820312 114.046875 351.820312 113.144531 Z M 351.820312 113.144531 "/>
<path style="fill-rule:evenodd;fill:rgb(63.99939%,70.400549%,80%);fill-opacity:1;stroke-width:1;stroke-linecap:square;stroke-linejoin:miter;stroke:rgb(0%,0%,0%);stroke-opacity:0.7;stroke-miterlimit:3.25;" d="M 243.957031 61.378906 C 243.957031 60.480469 243.601562 59.613281 242.964844 58.976562 C 242.328125 58.339844 241.460938 57.984375 240.5625 57.984375 C 239.660156 57.984375 238.796875 58.339844 238.160156 58.976562 C 237.523438 59.613281 237.164062 60.480469 237.164062 61.378906 C 237.164062 62.28125 237.523438 63.144531 238.160156 63.78125 C 238.796875 64.417969 239.660156 64.777344 240.5625 64.777344 C 241.460938 64.777344 242.328125 64.417969 242.964844 63.78125 C 243.601562 63.144531 243.957031 62.28125 243.957031 61.378906 Z M 243.957031 61.378906 "/>
<path style="fill-rule:evenodd;fill:rgb(63.99939%,70.400549%,80%);fill-opacity:1;stroke-width:1;stroke-linecap:square;stroke-linejoin:miter;stroke:rgb(0%,0%,0%);stroke-opacity:0.7;stroke-miterlimit:3.25;" d="M 173.824219 228.847656 C 173.824219 227.945312 173.464844 227.082031 172.828125 226.445312 C 172.191406 225.808594 171.328125 225.449219 170.429688 225.449219 C 169.527344 225.449219 168.664062 225.808594 168.027344 226.445312 C 167.390625 227.082031 167.03125 227.945312 167.03125 228.847656 C 167.03125 229.746094 167.390625 230.613281 168.027344 231.25 C 168.664062 231.886719 169.527344 232.242188 170.429688 232.242188 C 171.328125 232.242188 172.191406 231.886719 172.828125 231.25 C 173.464844 230.613281 173.824219 229.746094 173.824219 228.847656 Z M 173.824219 228.847656 "/>
<path style="fill-rule:evenodd;fill:rgb(63.99939%,70.400549%,80%);fill-opacity:1;stroke-width:1;stroke-linecap:square;stroke-linejoin:miter;stroke:rgb(0%,0%,0%);stroke-opacity:0.7;stroke-miterlimit:3.25;" d="M 119.316406 256.472656 C 119.316406 255.570312 118.960938 254.707031 118.324219 254.070312 C 117.6875 253.433594 116.820312 253.074219 115.921875 253.074219 C 115.019531 253.074219 114.15625 253.433594 113.519531 254.070312 C 112.882812 254.707031 112.523438 255.570312 112.523438 256.472656 C 112.523438 257.375 112.882812 258.238281 113.519531 258.875 C 114.15625 259.511719 115.019531 259.867188 115.921875 259.867188 C 116.820312 259.867188 117.6875 259.511719 118.324219 258.875 C 118.960938 258.238281 119.316406 257.375 119.316406 256.472656 Z M 119.316406 256.472656 "/>
</g>
</svg>
