<?xml version="1.0" encoding="UTF-8"?>
<svg xmlns="http://www.w3.org/2000/svg" xmlns:xlink="http://www.w3.org/1999/xlink" width="360pt" height="273pt" viewBox="0 0 360 273" version="1.1">
<g id="surface1">
<path style="fill:none;stroke-width:1;stroke-linecap:butt;stroke-linejoin:miter;stroke:rgb(14.999619%,28.999771%,50.000763%);stroke-opacity:0.7;stroke-miterlimit:3.25;" d="M 225.667969 264.925781 L 172.058594 194.546875 " transform="matrix(1,0,0,1,-66,-5)"/>
<path style="fill:none;stroke-width:1;stroke-linecap:butt;stroke-linejoin:miter;stroke:rgb(14.999619%,28.999771%,50.000763%);stroke-opacity:0.7;stroke-miterlimit:3.25;" d="M 226.867188 264.394531 L 201.128906 124.285156 " transform="matrix(1,0,0,1,-66,-5)"/>
<path style="fill:none;stroke-width:1;stroke-linecap:butt;stroke-linejoin:miter;stroke:rgb(14.999619%,28.999771%,50.000763%);stroke-opacity:0.7;stroke-miterlimit:3.25;" d="M 228.746094 264.703125 L 272.90625 185.164062 " transform="matrix(1,0,0,1,-66,-5)"/>
<path style="fill:none;stroke-width:1;stroke-linecap:butt;stroke-linejoin:miter;stroke:rgb(14.999619%,28.999771%,50.000763%);stroke-opacity:0.7;stroke-miterlimit:3.25;" d="M 227.128906 264.359375 L 219.078125 173.519531 " transform="matrix(1,0,0,1,-66,-5)"/>
<path style="fill:none;stroke-width:1;stroke-linecap:butt;stroke-linejoin:miter;stroke:rgb(14.999619%,28.999771%,50.000763%);stroke-opacity:0.7;stroke-miterlimit:3.25;" d="M 229.707031 265.582031 L 328.828125 197.894531 " transform="matrix(1,0,0,1,-66,-5)"/>
<path style="fill:none;stroke-width:1;stroke-linecap:butt;stroke-linejoin:miter;stroke:rgb(14.999619%,28.999771%,50.000763%);stroke-opacity:0.7;stroke-miterlimit:3.25;" d="M 224.734375 266.179688 L 149.574219 237.96875 " transform="matrix(1,0,0,1,-66,-5)"/>
<path style="fill:none;stroke-width:1;stroke-linecap:butt;stroke-linejoin:miter;stroke:rgb(14.999619%,28.999771%,50.000763%);stroke-opacity:0.7;stroke-miterlimit:3.25;" d="M 225.226562 265.34375 L 120.269531 176.160156 " transform="matrix(1,0,0,1,-66,-5)"/>
<path style="fill:none;stroke-width:1;stroke-linecap:butt;stroke-linejoin:miter;stroke:rgb(14.999619%,28.999771%,50.000763%);stroke-opacity:0.7;stroke-miterlimit:3.25;" d="M 334.609375 81.109375 L 203.320312 120.695312 " transform="matrix(1,0,0,1,-66,-5)"/>
<path style="fill:none;stroke-width:1;stroke-linecap:butt;stroke-linejoin:miter;stroke:rgb(14.999619%,28.999771%,50.000763%);stroke-opacity:0.7;stroke-miterlimit:3.25;" d="M 335.832031 82.699219 L 275.757812 180.292969 " transform="matrix(1,0,0,1,-66,-5)"/>
<path style="fill:none;stroke-width:1;stroke-linecap:butt;stroke-linejoin:miter;stroke:rgb(14.999619%,28.999771%,50.000763%);stroke-opacity:0.7;stroke-miterlimit:3.25;" d="M 334.757812 81.496094 L 253.847656 119.519531 " transform="matrix(1,0,0,1,-66,-5)"/>
<path style="fill:none;stroke-width:1;stroke-linecap:butt;stroke-linejoin:miter;stroke:rgb(14.999619%,28.999771%,50.000763%);stroke-opacity:0.7;stroke-miterlimit:3.25;" d="M 334.570312 79.621094 L 196.492188 45.625 " transform="matrix(1,0,0,1,-66,-5)"/>
<path style="fill:none;stroke-width:1;stroke-linecap:butt;stroke-linejoin:miter;stroke:rgb(14.999619%,28.999771%,50.000763%);stroke-opacity:0.7;stroke-miterlimit:3.25;" d="M 337.160156 83.113281 L 331.308594 193.484375 " transform="matrix(1,0,0,1,-66,-5)"/>
<path style="fill:none;stroke-width:1;stroke-linecap:butt;stroke-linejoin:miter;stroke:rgb(14.999619%,28.999771%,50.000763%);stroke-opacity:0.7;stroke-miterlimit:3.25;" d="M 334.785156 79.035156 L 266.511719 44.980469 " transform="matrix(1,0,0,1,-66,-5)"/>
<path style="fill:none;stroke-width:1;stroke-linecap:butt;stroke-linejoin:miter;stroke:rgb(14.999619%,28.999771%,50.000763%);stroke-opacity:0.7;stroke-miterlimit:3.25;" d="M 171.457031 189.707031 L 199.507812 124.105469 " transform="matrix(1,0,0,1,-66,-5)"/>
<path style="fill:none;stroke-width:1;stroke-linecap:butt;stroke-linejoin:miter;stroke:rgb(14.999619%,28.999771%,50.000763%);stroke-opacity:0.7;stroke-miterlimit:3.25;" d="M 173.15625 192.042969 L 271.46875 182.957031 " transform="matrix(1,0,0,1,-66,-5)"/>
<path style="fill:none;stroke-width:1;stroke-linecap:butt;stroke-linejoin:miter;stroke:rgb(14.999619%,28.999771%,50.000763%);stroke-opacity:0.7;stroke-miterlimit:3.25;" d="M 172.460938 190.433594 L 249.179688 122.589844 " transform="matrix(1,0,0,1,-66,-5)"/>
<path style="fill:none;stroke-width:1;stroke-linecap:butt;stroke-linejoin:miter;stroke:rgb(14.999619%,28.999771%,50.000763%);stroke-opacity:0.7;stroke-miterlimit:3.25;" d="M 170.035156 189.496094 L 162.800781 125.09375 " transform="matrix(1,0,0,1,-66,-5)"/>
<path style="fill:none;stroke-width:1;stroke-linecap:butt;stroke-linejoin:miter;stroke:rgb(14.999619%,28.999771%,50.000763%);stroke-opacity:0.7;stroke-miterlimit:3.25;" d="M 172.925781 191.152344 L 216.25 171.855469 " transform="matrix(1,0,0,1,-66,-5)"/>
<path style="fill:none;stroke-width:1;stroke-linecap:butt;stroke-linejoin:miter;stroke:rgb(14.999619%,28.999771%,50.000763%);stroke-opacity:0.7;stroke-miterlimit:3.25;" d="M 170.792969 189.515625 L 193.3125 47.738281 " transform="matrix(1,0,0,1,-66,-5)"/>
<path style="fill:none;stroke-width:1;stroke-linecap:butt;stroke-linejoin:miter;stroke:rgb(14.999619%,28.999771%,50.000763%);stroke-opacity:0.7;stroke-miterlimit:3.25;" d="M 168.015625 190.710938 L 78.910156 130.023438 " transform="matrix(1,0,0,1,-66,-5)"/>
<path style="fill:none;stroke-width:1;stroke-linecap:butt;stroke-linejoin:miter;stroke:rgb(14.999619%,28.999771%,50.000763%);stroke-opacity:0.7;stroke-miterlimit:3.25;" d="M 169.039062 194.800781 L 148.242188 234.480469 " transform="matrix(1,0,0,1,-66,-5)"/>
<path style="fill:none;stroke-width:1;stroke-linecap:butt;stroke-linejoin:miter;stroke:rgb(14.999619%,28.999771%,50.000763%);stroke-opacity:0.7;stroke-miterlimit:3.25;" d="M 202.789062 123.3125 L 272.105469 180.894531 " transform="matrix(1,0,0,1,-66,-5)"/>
<path style="fill:none;stroke-width:1;stroke-linecap:butt;stroke-linejoin:miter;stroke:rgb(14.999619%,28.999771%,50.000763%);stroke-opacity:0.7;stroke-miterlimit:3.25;" d="M 203.4375 121.464844 L 248.472656 120.765625 " transform="matrix(1,0,0,1,-66,-5)"/>
<path style="fill:none;stroke-width:1;stroke-linecap:butt;stroke-linejoin:miter;stroke:rgb(14.999619%,28.999771%,50.000763%);stroke-opacity:0.7;stroke-miterlimit:3.25;" d="M 197.796875 121.566406 L 165.308594 122.230469 " transform="matrix(1,0,0,1,-66,-5)"/>
<path style="fill:none;stroke-width:1;stroke-linecap:butt;stroke-linejoin:miter;stroke:rgb(14.999619%,28.999771%,50.000763%);stroke-opacity:0.7;stroke-miterlimit:3.25;" d="M 197.800781 121.667969 L 79.394531 128.277344 " transform="matrix(1,0,0,1,-66,-5)"/>
<path style="fill:none;stroke-width:1;stroke-linecap:butt;stroke-linejoin:miter;stroke:rgb(14.999619%,28.999771%,50.000763%);stroke-opacity:0.7;stroke-miterlimit:3.25;" d="M 202.398438 119.324219 L 262.203125 45.910156 " transform="matrix(1,0,0,1,-66,-5)"/>
<path style="fill:none;stroke-width:1;stroke-linecap:butt;stroke-linejoin:miter;stroke:rgb(14.999619%,28.999771%,50.000763%);stroke-opacity:0.7;stroke-miterlimit:3.25;" d="M 199.429688 124.070312 L 148.121094 234.421875 " transform="matrix(1,0,0,1,-66,-5)"/>
<path style="fill:none;stroke-width:1;stroke-linecap:butt;stroke-linejoin:miter;stroke:rgb(14.999619%,28.999771%,50.000763%);stroke-opacity:0.7;stroke-miterlimit:3.25;" d="M 198.242188 123.03125 L 120.496094 172.8125 " transform="matrix(1,0,0,1,-66,-5)"/>
<path style="fill:none;stroke-width:1;stroke-linecap:butt;stroke-linejoin:miter;stroke:rgb(14.999619%,28.999771%,50.000763%);stroke-opacity:0.7;stroke-miterlimit:3.25;" d="M 199.222656 119.058594 L 141.175781 17.167969 " transform="matrix(1,0,0,1,-66,-5)"/>
<path style="fill:none;stroke-width:1;stroke-linecap:butt;stroke-linejoin:miter;stroke:rgb(14.999619%,28.999771%,50.000763%);stroke-opacity:0.7;stroke-miterlimit:3.25;" d="M 273.296875 180.050781 L 252.273438 123.367188 " transform="matrix(1,0,0,1,-66,-5)"/>
<path style="fill:none;stroke-width:1;stroke-linecap:butt;stroke-linejoin:miter;stroke:rgb(14.999619%,28.999771%,50.000763%);stroke-opacity:0.7;stroke-miterlimit:3.25;" d="M 271.792969 181.355469 L 164.96875 123.628906 " transform="matrix(1,0,0,1,-66,-5)"/>
<path style="fill:none;stroke-width:1;stroke-linecap:butt;stroke-linejoin:miter;stroke:rgb(14.999619%,28.999771%,50.000763%);stroke-opacity:0.7;stroke-miterlimit:3.25;" d="M 271.519531 182.097656 L 221.585938 171.304688 " transform="matrix(1,0,0,1,-66,-5)"/>
<path style="fill:none;stroke-width:1;stroke-linecap:butt;stroke-linejoin:miter;stroke:rgb(14.999619%,28.999771%,50.000763%);stroke-opacity:0.7;stroke-miterlimit:3.25;" d="M 277.019531 183.351562 L 328.414062 195.644531 " transform="matrix(1,0,0,1,-66,-5)"/>
<path style="fill:none;stroke-width:1;stroke-linecap:butt;stroke-linejoin:miter;stroke:rgb(14.999619%,28.999771%,50.000763%);stroke-opacity:0.7;stroke-miterlimit:3.25;" d="M 274.070312 179.882812 L 264.195312 46.535156 " transform="matrix(1,0,0,1,-66,-5)"/>
<path style="fill:none;stroke-width:1;stroke-linecap:butt;stroke-linejoin:miter;stroke:rgb(14.999619%,28.999771%,50.000763%);stroke-opacity:0.7;stroke-miterlimit:3.25;" d="M 271.679688 183.800781 L 149.527344 235.871094 " transform="matrix(1,0,0,1,-66,-5)"/>
<path style="fill:none;stroke-width:1;stroke-linecap:butt;stroke-linejoin:miter;stroke:rgb(14.999619%,28.999771%,50.000763%);stroke-opacity:0.7;stroke-miterlimit:3.25;" d="M 249.757812 123.085938 L 220.363281 168.339844 " transform="matrix(1,0,0,1,-66,-5)"/>
<path style="fill:none;stroke-width:1;stroke-linecap:butt;stroke-linejoin:miter;stroke:rgb(14.999619%,28.999771%,50.000763%);stroke-opacity:0.7;stroke-miterlimit:3.25;" d="M 253.34375 122.660156 L 329.109375 194.363281 " transform="matrix(1,0,0,1,-66,-5)"/>
<path style="fill:none;stroke-width:1;stroke-linecap:butt;stroke-linejoin:miter;stroke:rgb(14.999619%,28.999771%,50.000763%);stroke-opacity:0.7;stroke-miterlimit:3.25;" d="M 251.753906 117.9375 L 263.527344 46.503906 " transform="matrix(1,0,0,1,-66,-5)"/>
<path style="fill:none;stroke-width:1;stroke-linecap:butt;stroke-linejoin:miter;stroke:rgb(14.999619%,28.999771%,50.000763%);stroke-opacity:0.7;stroke-miterlimit:3.25;" d="M 249.410156 122.820312 L 148.816406 234.878906 " transform="matrix(1,0,0,1,-66,-5)"/>
<path style="fill:none;stroke-width:1;stroke-linecap:butt;stroke-linejoin:miter;stroke:rgb(14.999619%,28.999771%,50.000763%);stroke-opacity:0.7;stroke-miterlimit:3.25;" d="M 248.675781 121.773438 L 120.738281 173.28125 " transform="matrix(1,0,0,1,-66,-5)"/>
<path style="fill:none;stroke-width:1;stroke-linecap:butt;stroke-linejoin:miter;stroke:rgb(14.999619%,28.999771%,50.000763%);stroke-opacity:0.7;stroke-miterlimit:3.25;" d="M 249.25 118.777344 L 141.824219 16.660156 " transform="matrix(1,0,0,1,-66,-5)"/>
<path style="fill:none;stroke-width:1;stroke-linecap:butt;stroke-linejoin:miter;stroke:rgb(14.999619%,28.999771%,50.000763%);stroke-opacity:0.7;stroke-miterlimit:3.25;" d="M 164.628906 124.128906 L 216.6875 168.867188 " transform="matrix(1,0,0,1,-66,-5)"/>
<path style="fill:none;stroke-width:1;stroke-linecap:butt;stroke-linejoin:miter;stroke:rgb(14.999619%,28.999771%,50.000763%);stroke-opacity:0.7;stroke-miterlimit:3.25;" d="M 165.070312 123.421875 L 328.574219 195.167969 " transform="matrix(1,0,0,1,-66,-5)"/>
<path style="fill:none;stroke-width:1;stroke-linecap:butt;stroke-linejoin:miter;stroke:rgb(14.999619%,28.999771%,50.000763%);stroke-opacity:0.7;stroke-miterlimit:3.25;" d="M 159.671875 122.488281 L 79.390625 128.234375 " transform="matrix(1,0,0,1,-66,-5)"/>
<path style="fill:none;stroke-width:1;stroke-linecap:butt;stroke-linejoin:miter;stroke:rgb(14.999619%,28.999771%,50.000763%);stroke-opacity:0.7;stroke-miterlimit:3.25;" d="M 164.71875 120.5625 L 261.753906 45.449219 " transform="matrix(1,0,0,1,-66,-5)"/>
<path style="fill:none;stroke-width:1;stroke-linecap:butt;stroke-linejoin:miter;stroke:rgb(14.999619%,28.999771%,50.000763%);stroke-opacity:0.7;stroke-miterlimit:3.25;" d="M 162.109375 125.085938 L 147.308594 234.183594 " transform="matrix(1,0,0,1,-66,-5)"/>
<path style="fill:none;stroke-width:1;stroke-linecap:butt;stroke-linejoin:miter;stroke:rgb(14.999619%,28.999771%,50.000763%);stroke-opacity:0.7;stroke-miterlimit:3.25;" d="M 160.65625 124.4375 L 119.953125 172.1875 " transform="matrix(1,0,0,1,-66,-5)"/>
<path style="fill:none;stroke-width:1;stroke-linecap:butt;stroke-linejoin:miter;stroke:rgb(14.999619%,28.999771%,50.000763%);stroke-opacity:0.7;stroke-miterlimit:3.25;" d="M 161.90625 119.527344 L 140.359375 17.476562 " transform="matrix(1,0,0,1,-66,-5)"/>
<path style="fill:none;stroke-width:1;stroke-linecap:butt;stroke-linejoin:miter;stroke:rgb(14.999619%,28.999771%,50.000763%);stroke-opacity:0.7;stroke-miterlimit:3.25;" d="M 218.277344 167.941406 L 194.304688 47.71875 " transform="matrix(1,0,0,1,-66,-5)"/>
<path style="fill:none;stroke-width:1;stroke-linecap:butt;stroke-linejoin:miter;stroke:rgb(14.999619%,28.999771%,50.000763%);stroke-opacity:0.7;stroke-miterlimit:3.25;" d="M 221.578125 171.332031 L 328.40625 195.675781 " transform="matrix(1,0,0,1,-66,-5)"/>
<path style="fill:none;stroke-width:1;stroke-linecap:butt;stroke-linejoin:miter;stroke:rgb(14.999619%,28.999771%,50.000763%);stroke-opacity:0.7;stroke-miterlimit:3.25;" d="M 216.121094 169.902344 L 79.28125 129.238281 " transform="matrix(1,0,0,1,-66,-5)"/>
<path style="fill:none;stroke-width:1;stroke-linecap:butt;stroke-linejoin:miter;stroke:rgb(14.999619%,28.999771%,50.000763%);stroke-opacity:0.7;stroke-miterlimit:3.25;" d="M 219.773438 168.046875 L 263.042969 46.378906 " transform="matrix(1,0,0,1,-66,-5)"/>
<path style="fill:none;stroke-width:1;stroke-linecap:butt;stroke-linejoin:miter;stroke:rgb(14.999619%,28.999771%,50.000763%);stroke-opacity:0.7;stroke-miterlimit:3.25;" d="M 216.007812 170.808594 L 120.941406 174.234375 " transform="matrix(1,0,0,1,-66,-5)"/>
<path style="fill:none;stroke-width:1;stroke-linecap:butt;stroke-linejoin:miter;stroke:rgb(14.999619%,28.999771%,50.000763%);stroke-opacity:0.7;stroke-miterlimit:3.25;" d="M 192.328125 47.386719 L 119.542969 171.898438 " transform="matrix(1,0,0,1,-66,-5)"/>
<path style="fill:none;stroke-width:1;stroke-linecap:butt;stroke-linejoin:miter;stroke:rgb(14.999619%,28.999771%,50.000763%);stroke-opacity:0.7;stroke-miterlimit:3.25;" d="M 191.292969 43.570312 L 142.238281 16.09375 " transform="matrix(1,0,0,1,-66,-5)"/>
<path style="fill:none;stroke-width:1;stroke-linecap:butt;stroke-linejoin:miter;stroke:rgb(14.999619%,28.999771%,50.000763%);stroke-opacity:0.7;stroke-miterlimit:3.25;" d="M 78.109375 130.804688 L 145.394531 234.609375 " transform="matrix(1,0,0,1,-66,-5)"/>
<path style="fill:none;stroke-width:1;stroke-linecap:butt;stroke-linejoin:miter;stroke:rgb(14.999619%,28.999771%,50.000763%);stroke-opacity:0.7;stroke-miterlimit:3.25;" d="M 78.46875 130.527344 L 116.226562 172.242188 " transform="matrix(1,0,0,1,-66,-5)"/>
<path style="fill:none;stroke-width:1;stroke-linecap:butt;stroke-linejoin:miter;stroke:rgb(14.999619%,28.999771%,50.000763%);stroke-opacity:0.7;stroke-miterlimit:3.25;" d="M 77.945312 125.96875 L 138.40625 17.179688 " transform="matrix(1,0,0,1,-66,-5)"/>
<path style="fill:none;stroke-width:1;stroke-linecap:butt;stroke-linejoin:miter;stroke:rgb(14.999619%,28.999771%,50.000763%);stroke-opacity:0.7;stroke-miterlimit:3.25;" d="M 261.238281 43.078125 L 142.523438 15.355469 " transform="matrix(1,0,0,1,-66,-5)"/>
<path style="fill:none;stroke-width:1;stroke-linecap:butt;stroke-linejoin:miter;stroke:rgb(14.999619%,28.999771%,50.000763%);stroke-opacity:0.7;stroke-miterlimit:3.25;" d="M 145.753906 234.414062 L 119.300781 176.898438 " transform="matrix(1,0,0,1,-66,-5)"/>
<path style="fill-rule:evenodd;fill:rgb(63.99939%,70.400549%,80%);fill-opacity:1;stroke-width:1;stroke-linecap:square;stroke-linejoin:miter;stroke:rgb(0%,0%,0%);stroke-opacity:0.7;stroke-miterlimit:3.25;" d="M 230.199219 267.171875 C 230.199219 266.421875 229.902344 265.707031 229.375 265.175781 C 228.84375 264.648438 228.125 264.351562 227.378906 264.351562 C 226.628906 264.351562 225.910156 264.648438 225.382812 265.175781 C 224.855469 265.707031 224.554688 266.421875 224.554688 267.171875 C 224.554688 267.917969 224.855469 268.636719 225.382812 269.167969 C 225.910156 269.695312 226.628906 269.992188 227.378906 269.992188 C 228.125 269.992188 228.84375 269.695312 229.375 269.167969 C 229.902344 268.636719 230.199219 267.917969 230.199219 267.171875 Z M 230.199219 267.171875 " transform="matrix(1,0,0,1,-66,-5)"/>
<path style="fill-rule:evenodd;fill:rgb(63.99939%,70.400549%,80%);fill-opacity:1;stroke-width:1;stroke-linecap:square;stroke-linejoin:miter;stroke:rgb(0%,0%,0%);stroke-opacity:0.7;stroke-miterlimit:3.25;" d="M 340.132812 80.296875 C 340.132812 79.546875 339.832031 78.828125 339.304688 78.300781 C 338.777344 77.769531 338.058594 77.472656 337.308594 77.472656 C 336.5625 77.472656 335.84375 77.769531 335.3125 78.300781 C 334.785156 78.828125 334.488281 79.546875 334.488281 80.296875 C 334.488281 81.042969 334.785156 81.761719 335.3125 82.289062 C 335.84375 82.820312 336.5625 83.117188 337.308594 83.117188 C 338.058594 83.117188 338.777344 82.820312 339.304688 82.289062 C 339.832031 81.761719 340.132812 81.042969 340.132812 80.296875 Z M 340.132812 80.296875 " transform="matrix(1,0,0,1,-66,-5)"/>
<path style="fill-rule:evenodd;fill:rgb(63.99939%,70.400549%,80%);fill-opacity:1;stroke-width:1;stroke-linecap:square;stroke-linejoin:miter;stroke:rgb(0%,0%,0%);stroke-opacity:0.7;stroke-miterlimit:3.25;" d="M 173.171875 192.300781 C 173.171875 191.550781 172.871094 190.835938 172.34375 190.304688 C 171.8125 189.777344 171.097656 189.480469 170.347656 189.480469 C 169.601562 189.480469 168.882812 189.777344 168.351562 190.304688 C 167.824219 190.835938 167.527344 191.550781 167.527344 192.300781 C 167.527344 193.050781 167.824219 193.765625 168.351562 194.296875 C 168.882812 194.824219 169.601562 195.121094 170.347656 195.121094 C 171.097656 195.121094 171.8125 194.824219 172.34375 194.296875 C 172.871094 193.765625 173.171875 193.050781 173.171875 192.300781 Z M 173.171875 192.300781 " transform="matrix(1,0,0,1,-66,-5)"/>
<path style="fill-rule:evenodd;fill:rgb(63.99939%,70.400549%,80%);fill-opacity:1;stroke-width:1;stroke-linecap:square;stroke-linejoin:miter;stroke:rgb(0%,0%,0%);stroke-opacity:0.7;stroke-miterlimit:3.25;" d="M 203.441406 121.511719 C 203.441406 120.761719 203.140625 120.042969 202.613281 119.515625 C 202.085938 118.984375 201.367188 118.6875 200.617188 118.6875 C 199.871094 118.6875 199.152344 118.984375 198.621094 119.515625 C 198.09375 120.042969 197.796875 120.761719 197.796875 121.511719 C 197.796875 122.257812 198.09375 122.976562 198.621094 123.503906 C 199.152344 124.035156 199.871094 124.332031 200.617188 124.332031 C 201.367188 124.332031 202.085938 124.035156 202.613281 123.503906 C 203.140625 122.976562 203.441406 122.257812 203.441406 121.511719 Z M 203.441406 121.511719 " transform="matrix(1,0,0,1,-66,-5)"/>
<path style="fill-rule:evenodd;fill:rgb(63.99939%,70.400549%,80%);fill-opacity:1;stroke-width:1;stroke-linecap:square;stroke-linejoin:miter;stroke:rgb(0%,0%,0%);stroke-opacity:0.7;stroke-miterlimit:3.25;" d="M 277.097656 182.695312 C 277.097656 181.945312 276.800781 181.230469 276.273438 180.699219 C 275.742188 180.171875 275.027344 179.875 274.277344 179.875 C 273.527344 179.875 272.8125 180.171875 272.28125 180.699219 C 271.753906 181.230469 271.457031 181.945312 271.457031 182.695312 C 271.457031 183.445312 271.753906 184.160156 272.28125 184.691406 C 272.8125 185.21875 273.527344 185.515625 274.277344 185.515625 C 275.027344 185.515625 275.742188 185.21875 276.273438 184.691406 C 276.800781 184.160156 277.097656 183.445312 277.097656 182.695312 Z M 277.097656 182.695312 " transform="matrix(1,0,0,1,-66,-5)"/>
<path style="fill-rule:evenodd;fill:rgb(63.99939%,70.400549%,80%);fill-opacity:1;stroke-width:1;stroke-linecap:square;stroke-linejoin:miter;stroke:rgb(0%,0%,0%);stroke-opacity:0.7;stroke-miterlimit:3.25;" d="M 254.117188 120.722656 C 254.117188 119.972656 253.816406 119.253906 253.289062 118.726562 C 252.761719 118.195312 252.042969 117.898438 251.292969 117.898438 C 250.546875 117.898438 249.828125 118.195312 249.296875 118.726562 C 248.769531 119.253906 248.472656 119.972656 248.472656 120.722656 C 248.472656 121.46875 248.769531 122.1875 249.296875 122.714844 C 249.828125 123.246094 250.546875 123.542969 251.292969 123.542969 C 252.042969 123.542969 252.761719 123.246094 253.289062 122.714844 C 253.816406 122.1875 254.117188 121.46875 254.117188 120.722656 Z M 254.117188 120.722656 " transform="matrix(1,0,0,1,-66,-5)"/>
<path style="fill-rule:evenodd;fill:rgb(63.99939%,70.400549%,80%);fill-opacity:1;stroke-width:1;stroke-linecap:square;stroke-linejoin:miter;stroke:rgb(0%,0%,0%);stroke-opacity:0.7;stroke-miterlimit:3.25;" d="M 165.308594 122.289062 C 165.308594 121.539062 165.011719 120.824219 164.480469 120.292969 C 163.953125 119.765625 163.234375 119.46875 162.488281 119.46875 C 161.738281 119.46875 161.019531 119.765625 160.492188 120.292969 C 159.960938 120.824219 159.664062 121.539062 159.664062 122.289062 C 159.664062 123.035156 159.960938 123.753906 160.492188 124.285156 C 161.019531 124.8125 161.738281 125.109375 162.488281 125.109375 C 163.234375 125.109375 163.953125 124.8125 164.480469 124.285156 C 165.011719 123.753906 165.308594 123.035156 165.308594 122.289062 Z M 165.308594 122.289062 " transform="matrix(1,0,0,1,-66,-5)"/>
<path style="fill-rule:evenodd;fill:rgb(63.99939%,70.400549%,80%);fill-opacity:1;stroke-width:1;stroke-linecap:square;stroke-linejoin:miter;stroke:rgb(0%,0%,0%);stroke-opacity:0.7;stroke-miterlimit:3.25;" d="M 221.648438 170.707031 C 221.648438 169.957031 221.351562 169.242188 220.824219 168.710938 C 220.292969 168.183594 219.574219 167.886719 218.828125 167.886719 C 218.078125 167.886719 217.363281 168.183594 216.832031 168.710938 C 216.304688 169.242188 216.007812 169.957031 216.007812 170.707031 C 216.007812 171.457031 216.304688 172.171875 216.832031 172.703125 C 217.363281 173.230469 218.078125 173.527344 218.828125 173.527344 C 219.574219 173.527344 220.292969 173.230469 220.824219 172.703125 C 221.351562 172.171875 221.648438 171.457031 221.648438 170.707031 Z M 221.648438 170.707031 " transform="matrix(1,0,0,1,-66,-5)"/>
<path style="fill-rule:evenodd;fill:rgb(63.99939%,70.400549%,80%);fill-opacity:1;stroke-width:1;stroke-linecap:square;stroke-linejoin:miter;stroke:rgb(0%,0%,0%);stroke-opacity:0.7;stroke-miterlimit:3.25;" d="M 196.574219 44.949219 C 196.574219 44.203125 196.277344 43.484375 195.75 42.953125 C 195.21875 42.425781 194.5 42.128906 193.753906 42.128906 C 193.003906 42.128906 192.289062 42.425781 191.757812 42.953125 C 191.230469 43.484375 190.933594 44.203125 190.933594 44.949219 C 190.933594 45.699219 191.230469 46.414062 191.757812 46.945312 C 192.289062 47.472656 193.003906 47.769531 193.753906 47.769531 C 194.5 47.769531 195.21875 47.472656 195.75 46.945312 C 196.277344 46.414062 196.574219 45.699219 196.574219 44.949219 Z M 196.574219 44.949219 " transform="matrix(1,0,0,1,-66,-5)"/>
<path style="fill-rule:evenodd;fill:rgb(63.99939%,70.400549%,80%);fill-opacity:1;stroke-width:1;stroke-linecap:square;stroke-linejoin:miter;stroke:rgb(0%,0%,0%);stroke-opacity:0.7;stroke-miterlimit:3.25;" d="M 333.980469 196.300781 C 333.980469 195.554688 333.683594 194.835938 333.152344 194.308594 C 332.625 193.777344 331.90625 193.480469 331.15625 193.480469 C 330.410156 193.480469 329.691406 193.777344 329.164062 194.308594 C 328.632812 194.835938 328.335938 195.554688 328.335938 196.300781 C 328.335938 197.050781 328.632812 197.769531 329.164062 198.296875 C 329.691406 198.824219 330.410156 199.125 331.15625 199.125 C 331.90625 199.125 332.625 198.824219 333.152344 198.296875 C 333.683594 197.769531 333.980469 197.050781 333.980469 196.300781 Z M 333.980469 196.300781 " transform="matrix(1,0,0,1,-66,-5)"/>
<path style="fill-rule:evenodd;fill:rgb(63.99939%,70.400549%,80%);fill-opacity:1;stroke-width:1;stroke-linecap:square;stroke-linejoin:miter;stroke:rgb(0%,0%,0%);stroke-opacity:0.7;stroke-miterlimit:3.25;" d="M 79.398438 128.4375 C 79.398438 127.6875 79.101562 126.96875 78.570312 126.441406 C 78.042969 125.910156 77.324219 125.613281 76.578125 125.613281 C 75.828125 125.613281 75.109375 125.910156 74.582031 126.441406 C 74.050781 126.96875 73.753906 127.6875 73.753906 128.4375 C 73.753906 129.183594 74.050781 129.902344 74.582031 130.429688 C 75.109375 130.960938 75.828125 131.257812 76.578125 131.257812 C 77.324219 131.257812 78.042969 130.960938 78.570312 130.429688 C 79.101562 129.902344 79.398438 129.183594 79.398438 128.4375 Z M 79.398438 128.4375 " transform="matrix(1,0,0,1,-66,-5)"/>
<path style="fill-rule:evenodd;fill:rgb(63.99939%,70.400549%,80%);fill-opacity:1;stroke-width:1;stroke-linecap:square;stroke-linejoin:miter;stroke:rgb(0%,0%,0%);stroke-opacity:0.7;stroke-miterlimit:3.25;" d="M 266.808594 43.722656 C 266.808594 42.972656 266.511719 42.253906 265.980469 41.726562 C 265.453125 41.195312 264.734375 40.898438 263.988281 40.898438 C 263.238281 40.898438 262.519531 41.195312 261.992188 41.726562 C 261.460938 42.253906 261.164062 42.972656 261.164062 43.722656 C 261.164062 44.46875 261.460938 45.1875 261.992188 45.714844 C 262.519531 46.246094 263.238281 46.542969 263.988281 46.542969 C 264.734375 46.542969 265.453125 46.246094 265.980469 45.714844 C 266.511719 45.1875 266.808594 44.46875 266.808594 43.722656 Z M 266.808594 43.722656 " transform="matrix(1,0,0,1,-66,-5)"/>
<path style="fill-rule:evenodd;fill:rgb(63.99939%,70.400549%,80%);fill-opacity:1;stroke-width:1;stroke-linecap:square;stroke-linejoin:miter;stroke:rgb(0%,0%,0%);stroke-opacity:0.7;stroke-miterlimit:3.25;" d="M 149.753906 236.976562 C 149.753906 236.230469 149.457031 235.511719 148.925781 234.984375 C 148.398438 234.453125 147.679688 234.15625 146.929688 234.15625 C 146.183594 234.15625 145.464844 234.453125 144.9375 234.984375 C 144.40625 235.511719 144.109375 236.230469 144.109375 236.976562 C 144.109375 237.726562 144.40625 238.445312 144.9375 238.972656 C 145.464844 239.503906 146.183594 239.800781 146.929688 239.800781 C 147.679688 239.800781 148.398438 239.503906 148.925781 238.972656 C 149.457031 238.445312 149.753906 237.726562 149.753906 236.976562 Z M 149.753906 236.976562 " transform="matrix(1,0,0,1,-66,-5)"/>
<path style="fill-rule:evenodd;fill:rgb(63.99939%,70.400549%,80%);fill-opacity:1;stroke-width:1;stroke-linecap:square;stroke-linejoin:miter;stroke:rgb(0%,0%,0%);stroke-opacity:0.7;stroke-miterlimit:3.25;" d="M 120.941406 174.335938 C 120.941406 173.585938 120.644531 172.867188 120.117188 172.339844 C 119.585938 171.8125 118.871094 171.511719 118.121094 171.511719 C 117.371094 171.511719 116.65625 171.8125 116.125 172.339844 C 115.597656 172.867188 115.300781 173.585938 115.300781 174.335938 C 115.300781 175.082031 115.597656 175.800781 116.125 176.328125 C 116.65625 176.859375 117.371094 177.15625 118.121094 177.15625 C 118.871094 177.15625 119.585938 176.859375 120.117188 176.328125 C 120.644531 175.800781 120.941406 175.082031 120.941406 174.335938 Z M 120.941406 174.335938 " transform="matrix(1,0,0,1,-66,-5)"/>
<path style="fill-rule:evenodd;fill:rgb(63.99939%,70.400549%,80%);fill-opacity:1;stroke-width:1;stroke-linecap:square;stroke-linejoin:miter;stroke:rgb(0%,0%,0%);stroke-opacity:0.7;stroke-miterlimit:3.25;" d="M 142.597656 14.714844 C 142.597656 13.964844 142.300781 13.25 141.773438 12.71875 C 141.242188 12.191406 140.527344 11.894531 139.777344 11.894531 C 139.027344 11.894531 138.3125 12.191406 137.78125 12.71875 C 137.253906 13.25 136.957031 13.964844 136.957031 14.714844 C 136.957031 15.460938 137.253906 16.179688 137.78125 16.710938 C 138.3125 17.238281 139.027344 17.535156 139.777344 17.535156 C 140.527344 17.535156 141.242188 17.238281 141.773438 16.710938 C 142.300781 16.179688 142.597656 15.460938 142.597656 14.714844 Z M 142.597656 14.714844 " transform="matrix(1,0,0,1,-66,-5)"/>
<path style="fill:none;stroke-width:1;stroke-linecap:butt;stroke-linejoin:miter;stroke:rgb(14.999619%,28.999771%,50.000763%);stroke-opacity:0.7;stroke-miterlimit:3.25;" d="M 177.574219 88.21875 L 170.785156 24.367188 " transform="matrix(1,0,0,1,-66,-5)"/>
<path style="fill:none;stroke-width:1;stroke-linecap:butt;stroke-linejoin:miter;stroke:rgb(14.999619%,28.999771%,50.000763%);stroke-opacity:0.7;stroke-miterlimit:3.25;" d="M 176.222656 94.535156 L 117.097656 196.226562 " transform="matrix(1,0,0,1,-66,-5)"/>
<path style="fill:none;stroke-width:1;stroke-linecap:butt;stroke-linejoin:miter;stroke:rgb(14.999619%,28.999771%,50.000763%);stroke-opacity:0.7;stroke-miterlimit:3.25;" d="M 174.542969 91.390625 L 79.96875 85.644531 " transform="matrix(1,0,0,1,-66,-5)"/>
<path style="fill:none;stroke-width:1;stroke-linecap:butt;stroke-linejoin:miter;stroke:rgb(14.999619%,28.999771%,50.000763%);stroke-opacity:0.7;stroke-miterlimit:3.25;" d="M 179.621094 94.542969 L 223.167969 170.472656 " transform="matrix(1,0,0,1,-66,-5)"/>
<path style="fill:none;stroke-width:1;stroke-linecap:butt;stroke-linejoin:miter;stroke:rgb(14.999619%,28.999771%,50.000763%);stroke-opacity:0.7;stroke-miterlimit:3.25;" d="M 181.175781 92.597656 L 320.648438 135.636719 " transform="matrix(1,0,0,1,-66,-5)"/>
<path style="fill:none;stroke-width:1;stroke-linecap:butt;stroke-linejoin:miter;stroke:rgb(14.999619%,28.999771%,50.000763%);stroke-opacity:0.7;stroke-miterlimit:3.25;" d="M 170.242188 24.378906 L 163.273438 153.425781 " transform="matrix(1,0,0,1,-66,-5)"/>
<path style="fill:none;stroke-width:1;stroke-linecap:butt;stroke-linejoin:miter;stroke:rgb(14.999619%,28.999771%,50.000763%);stroke-opacity:0.7;stroke-miterlimit:3.25;" d="M 167.628906 22.910156 L 79.375 83.515625 " transform="matrix(1,0,0,1,-66,-5)"/>
<path style="fill:none;stroke-width:1;stroke-linecap:butt;stroke-linejoin:miter;stroke:rgb(14.999619%,28.999771%,50.000763%);stroke-opacity:0.7;stroke-miterlimit:3.25;" d="M 173.605469 22.183594 L 303.382812 70.886719 " transform="matrix(1,0,0,1,-66,-5)"/>
<path style="fill:none;stroke-width:1;stroke-linecap:butt;stroke-linejoin:miter;stroke:rgb(14.999619%,28.999771%,50.000763%);stroke-opacity:0.7;stroke-miterlimit:3.25;" d="M 160.46875 154.65625 L 79.195312 87.601562 " transform="matrix(1,0,0,1,-66,-5)"/>
<path style="fill:none;stroke-width:1;stroke-linecap:butt;stroke-linejoin:miter;stroke:rgb(14.999619%,28.999771%,50.000763%);stroke-opacity:0.7;stroke-miterlimit:3.25;" d="M 166.371094 157.695312 L 294.640625 192.089844 " transform="matrix(1,0,0,1,-66,-5)"/>
<path style="fill:none;stroke-width:1;stroke-linecap:butt;stroke-linejoin:miter;stroke:rgb(14.999619%,28.999771%,50.000763%);stroke-opacity:0.7;stroke-miterlimit:3.25;" d="M 165.34375 159.359375 L 234.175781 237.003906 " transform="matrix(1,0,0,1,-66,-5)"/>
<path style="fill:none;stroke-width:1;stroke-linecap:butt;stroke-linejoin:miter;stroke:rgb(14.999619%,28.999771%,50.000763%);stroke-opacity:0.7;stroke-miterlimit:3.25;" d="M 163.660156 160.164062 L 181.351562 263.824219 " transform="matrix(1,0,0,1,-66,-5)"/>
<path style="fill:none;stroke-width:1;stroke-linecap:butt;stroke-linejoin:miter;stroke:rgb(14.999619%,28.999771%,50.000763%);stroke-opacity:0.7;stroke-miterlimit:3.25;" d="M 114.292969 195.949219 L 77.671875 88.65625 " transform="matrix(1,0,0,1,-66,-5)"/>
<path style="fill:none;stroke-width:1;stroke-linecap:butt;stroke-linejoin:miter;stroke:rgb(14.999619%,28.999771%,50.000763%);stroke-opacity:0.7;stroke-miterlimit:3.25;" d="M 118.695312 198.382812 L 221.550781 174.195312 " transform="matrix(1,0,0,1,-66,-5)"/>
<path style="fill:none;stroke-width:1;stroke-linecap:butt;stroke-linejoin:miter;stroke:rgb(14.999619%,28.999771%,50.000763%);stroke-opacity:0.7;stroke-miterlimit:3.25;" d="M 118.613281 200.238281 L 233.207031 238.472656 " transform="matrix(1,0,0,1,-66,-5)"/>
<path style="fill:none;stroke-width:1;stroke-linecap:butt;stroke-linejoin:miter;stroke:rgb(14.999619%,28.999771%,50.000763%);stroke-opacity:0.7;stroke-miterlimit:3.25;" d="M 117.765625 201.589844 L 179.546875 264.742188 " transform="matrix(1,0,0,1,-66,-5)"/>
<path style="fill:none;stroke-width:1;stroke-linecap:butt;stroke-linejoin:miter;stroke:rgb(14.999619%,28.999771%,50.000763%);stroke-opacity:0.7;stroke-miterlimit:3.25;" d="M 294.636719 192.09375 L 228.140625 174.296875 " transform="matrix(1,0,0,1,-66,-5)"/>
<path style="fill:none;stroke-width:1;stroke-linecap:butt;stroke-linejoin:miter;stroke:rgb(14.999619%,28.999771%,50.000763%);stroke-opacity:0.7;stroke-miterlimit:3.25;" d="M 299.34375 189.886719 L 322.472656 139.722656 " transform="matrix(1,0,0,1,-66,-5)"/>
<path style="fill:none;stroke-width:1;stroke-linecap:butt;stroke-linejoin:miter;stroke:rgb(14.999619%,28.999771%,50.000763%);stroke-opacity:0.7;stroke-miterlimit:3.25;" d="M 300.839844 191.238281 L 411.503906 125.578125 " transform="matrix(1,0,0,1,-66,-5)"/>
<path style="fill:none;stroke-width:1;stroke-linecap:butt;stroke-linejoin:miter;stroke:rgb(14.999619%,28.999771%,50.000763%);stroke-opacity:0.7;stroke-miterlimit:3.25;" d="M 298.160156 189.582031 L 306.320312 75.464844 " transform="matrix(1,0,0,1,-66,-5)"/>
<path style="fill:none;stroke-width:1;stroke-linecap:butt;stroke-linejoin:miter;stroke:rgb(14.999619%,28.999771%,50.000763%);stroke-opacity:0.7;stroke-miterlimit:3.25;" d="M 295.210938 195.023438 L 239.136719 237.496094 " transform="matrix(1,0,0,1,-66,-5)"/>
<path style="fill:none;stroke-width:1;stroke-linecap:butt;stroke-linejoin:miter;stroke:rgb(14.999619%,28.999771%,50.000763%);stroke-opacity:0.7;stroke-miterlimit:3.25;" d="M 295.058594 194.800781 L 184.78125 265.339844 " transform="matrix(1,0,0,1,-66,-5)"/>
<path style="fill:none;stroke-width:1;stroke-linecap:butt;stroke-linejoin:miter;stroke:rgb(14.999619%,28.999771%,50.000763%);stroke-opacity:0.7;stroke-miterlimit:3.25;" d="M 226.992188 170.773438 L 304.429688 74.722656 " transform="matrix(1,0,0,1,-66,-5)"/>
<path style="fill:none;stroke-width:1;stroke-linecap:butt;stroke-linejoin:miter;stroke:rgb(14.999619%,28.999771%,50.000763%);stroke-opacity:0.7;stroke-miterlimit:3.25;" d="M 225.445312 176.765625 L 235.84375 236.199219 " transform="matrix(1,0,0,1,-66,-5)"/>
<path style="fill:none;stroke-width:1;stroke-linecap:butt;stroke-linejoin:miter;stroke:rgb(14.999619%,28.999771%,50.000763%);stroke-opacity:0.7;stroke-miterlimit:3.25;" d="M 223.445312 176.507812 L 183.335938 264.082031 " transform="matrix(1,0,0,1,-66,-5)"/>
<path style="fill:none;stroke-width:1;stroke-linecap:butt;stroke-linejoin:miter;stroke:rgb(14.999619%,28.999771%,50.000763%);stroke-opacity:0.7;stroke-miterlimit:3.25;" d="M 327.257812 136.164062 L 411.058594 124.320312 " transform="matrix(1,0,0,1,-66,-5)"/>
<path style="fill:none;stroke-width:1;stroke-linecap:butt;stroke-linejoin:miter;stroke:rgb(14.999619%,28.999771%,50.000763%);stroke-opacity:0.7;stroke-miterlimit:3.25;" d="M 323.011719 133.359375 L 307.441406 75.359375 " transform="matrix(1,0,0,1,-66,-5)"/>
<path style="fill:none;stroke-width:1;stroke-linecap:butt;stroke-linejoin:miter;stroke:rgb(14.999619%,28.999771%,50.000763%);stroke-opacity:0.7;stroke-miterlimit:3.25;" d="M 321.695312 139.226562 L 238.628906 236.957031 " transform="matrix(1,0,0,1,-66,-5)"/>
<path style="fill:none;stroke-width:1;stroke-linecap:butt;stroke-linejoin:miter;stroke:rgb(14.999619%,28.999771%,50.000763%);stroke-opacity:0.7;stroke-miterlimit:3.25;" d="M 411.359375 122.375 L 309.625 73.546875 " transform="matrix(1,0,0,1,-66,-5)"/>
<path style="fill:none;stroke-width:1;stroke-linecap:butt;stroke-linejoin:miter;stroke:rgb(14.999619%,28.999771%,50.000763%);stroke-opacity:0.7;stroke-miterlimit:3.25;" d="M 233.398438 241.082031 L 184.949219 265.636719 " transform="matrix(1,0,0,1,-66,-5)"/>
<path style="fill-rule:evenodd;fill:rgb(63.99939%,70.400549%,80%);fill-opacity:1;stroke-width:1;stroke-linecap:square;stroke-linejoin:miter;stroke:rgb(0%,0%,0%);stroke-opacity:0.7;stroke-miterlimit:3.25;" d="M 181.328125 91.597656 C 181.328125 90.695312 180.96875 89.832031 180.332031 89.195312 C 179.695312 88.558594 178.832031 88.199219 177.929688 88.199219 C 177.03125 88.199219 176.167969 88.558594 175.53125 89.195312 C 174.894531 89.832031 174.535156 90.695312 174.535156 91.597656 C 174.535156 92.5 174.894531 93.363281 175.53125 94 C 176.167969 94.636719 177.03125 94.992188 177.929688 94.992188 C 178.832031 94.992188 179.695312 94.636719 180.332031 94 C 180.96875 93.363281 181.328125 92.5 181.328125 91.597656 Z M 181.328125 91.597656 " transform="matrix(1,0,0,1,-66,-5)"/>
<path style="fill-rule:evenodd;fill:rgb(63.99939%,70.400549%,80%);fill-opacity:1;stroke-width:1;stroke-linecap:square;stroke-linejoin:miter;stroke:rgb(0%,0%,0%);stroke-opacity:0.7;stroke-miterlimit:3.25;" d="M 173.824219 20.988281 C 173.824219 20.085938 173.464844 19.222656 172.828125 18.585938 C 172.191406 17.949219 171.328125 17.59375 170.425781 17.59375 C 169.527344 17.59375 168.664062 17.949219 168.023438 18.585938 C 167.386719 19.222656 167.03125 20.085938 167.03125 20.988281 C 167.03125 21.890625 167.386719 22.753906 168.023438 23.390625 C 168.664062 24.027344 169.527344 24.386719 170.425781 24.386719 C 171.328125 24.386719 172.191406 24.027344 172.828125 23.390625 C 173.464844 22.753906 173.824219 21.890625 173.824219 20.988281 Z M 173.824219 20.988281 " transform="matrix(1,0,0,1,-66,-5)"/>
<path style="fill-rule:evenodd;fill:rgb(63.99939%,70.400549%,80%);fill-opacity:1;stroke-width:1;stroke-linecap:square;stroke-linejoin:miter;stroke:rgb(0%,0%,0%);stroke-opacity:0.7;stroke-miterlimit:3.25;" d="M 166.484375 156.816406 C 166.484375 155.914062 166.128906 155.050781 165.492188 154.414062 C 164.855469 153.777344 163.988281 153.421875 163.089844 153.421875 C 162.1875 153.421875 161.324219 153.777344 160.6875 154.414062 C 160.050781 155.050781 159.691406 155.914062 159.691406 156.816406 C 159.691406 157.71875 160.050781 158.582031 160.6875 159.21875 C 161.324219 159.855469 162.1875 160.214844 163.089844 160.214844 C 163.988281 160.214844 164.855469 159.855469 165.492188 159.21875 C 166.128906 158.582031 166.484375 157.71875 166.484375 156.816406 Z M 166.484375 156.816406 " transform="matrix(1,0,0,1,-66,-5)"/>
<path style="fill-rule:evenodd;fill:rgb(63.99939%,70.400549%,80%);fill-opacity:1;stroke-width:1;stroke-linecap:square;stroke-linejoin:miter;stroke:rgb(0%,0%,0%);stroke-opacity:0.7;stroke-miterlimit:3.25;" d="M 118.789062 199.160156 C 118.789062 198.261719 118.429688 197.398438 117.792969 196.761719 C 117.15625 196.125 116.292969 195.765625 115.390625 195.765625 C 114.488281 195.765625 113.625 196.125 112.988281 196.761719 C 112.351562 197.398438 111.996094 198.261719 111.996094 199.160156 C 111.996094 200.0625 112.351562 200.925781 112.988281 201.5625 C 113.625 202.199219 114.488281 202.558594 115.390625 202.558594 C 116.292969 202.558594 117.15625 202.199219 117.792969 201.5625 C 118.429688 200.925781 118.789062 200.0625 118.789062 199.160156 Z M 118.789062 199.160156 " transform="matrix(1,0,0,1,-66,-5)"/>
<path style="fill-rule:evenodd;fill:rgb(63.99939%,70.400549%,80%);fill-opacity:1;stroke-width:1;stroke-linecap:square;stroke-linejoin:miter;stroke:rgb(0%,0%,0%);stroke-opacity:0.7;stroke-miterlimit:3.25;" d="M 79.972656 85.441406 C 79.972656 84.539062 79.613281 83.675781 78.976562 83.039062 C 78.339844 82.402344 77.476562 82.042969 76.578125 82.042969 C 75.675781 82.042969 74.8125 82.402344 74.175781 83.039062 C 73.539062 83.675781 73.179688 84.539062 73.179688 85.441406 C 73.179688 86.339844 73.539062 87.203125 74.175781 87.839844 C 74.8125 88.480469 75.675781 88.835938 76.578125 88.835938 C 77.476562 88.835938 78.339844 88.480469 78.976562 87.839844 C 79.613281 87.203125 79.972656 86.339844 79.972656 85.441406 Z M 79.972656 85.441406 " transform="matrix(1,0,0,1,-66,-5)"/>
<path style="fill-rule:evenodd;fill:rgb(63.99939%,70.400549%,80%);fill-opacity:1;stroke-width:1;stroke-linecap:square;stroke-linejoin:miter;stroke:rgb(0%,0%,0%);stroke-opacity:0.7;stroke-miterlimit:3.25;" d="M 301.316406 192.972656 C 301.316406 192.070312 300.957031 191.207031 300.320312 190.570312 C 299.683594 189.933594 298.820312 189.574219 297.917969 189.574219 C 297.019531 189.574219 296.15625 189.933594 295.519531 190.570312 C 294.882812 191.207031 294.523438 192.070312 294.523438 192.972656 C 294.523438 193.871094 294.882812 194.734375 295.519531 195.371094 C 296.15625 196.007812 297.019531 196.367188 297.917969 196.367188 C 298.820312 196.367188 299.683594 196.007812 300.320312 195.371094 C 300.957031 194.734375 301.316406 193.871094 301.316406 192.972656 Z M 301.316406 192.972656 " transform="matrix(1,0,0,1,-66,-5)"/>
<path style="fill-rule:evenodd;fill:rgb(63.99939%,70.400549%,80%);fill-opacity:1;stroke-width:1;stroke-linecap:square;stroke-linejoin:miter;stroke:rgb(0%,0%,0%);stroke-opacity:0.7;stroke-miterlimit:3.25;" d="M 228.253906 173.417969 C 228.253906 172.519531 227.898438 171.65625 227.261719 171.019531 C 226.625 170.378906 225.757812 170.023438 224.859375 170.023438 C 223.957031 170.023438 223.09375 170.378906 222.457031 171.019531 C 221.820312 171.65625 221.460938 172.519531 221.460938 173.417969 C 221.460938 174.320312 221.820312 175.183594 222.457031 175.820312 C 223.09375 176.457031 223.957031 176.816406 224.859375 176.816406 C 225.757812 176.816406 226.625 176.457031 227.261719 175.820312 C 227.898438 175.183594 228.253906 174.320312 228.253906 173.417969 Z M 228.253906 173.417969 " transform="matrix(1,0,0,1,-66,-5)"/>
<path style="fill-rule:evenodd;fill:rgb(63.99939%,70.400549%,80%);fill-opacity:1;stroke-width:1;stroke-linecap:square;stroke-linejoin:miter;stroke:rgb(0%,0%,0%);stroke-opacity:0.7;stroke-miterlimit:3.25;" d="M 327.289062 136.636719 C 327.289062 135.738281 326.933594 134.875 326.296875 134.238281 C 325.660156 133.601562 324.796875 133.242188 323.894531 133.242188 C 322.992188 133.242188 322.128906 133.601562 321.492188 134.238281 C 320.855469 134.875 320.496094 135.738281 320.496094 136.636719 C 320.496094 137.539062 320.855469 138.402344 321.492188 139.039062 C 322.128906 139.675781 322.992188 140.035156 323.894531 140.035156 C 324.796875 140.035156 325.660156 139.675781 326.296875 139.039062 C 326.933594 138.402344 327.289062 137.539062 327.289062 136.636719 Z M 327.289062 136.636719 " transform="matrix(1,0,0,1,-66,-5)"/>
<path style="fill-rule:evenodd;fill:rgb(63.99939%,70.400549%,80%);fill-opacity:1;stroke-width:1;stroke-linecap:square;stroke-linejoin:miter;stroke:rgb(0%,0%,0%);stroke-opacity:0.7;stroke-miterlimit:3.25;" d="M 417.820312 123.84375 C 417.820312 122.941406 417.460938 122.078125 416.824219 121.441406 C 416.1875 120.804688 415.324219 120.449219 414.421875 120.449219 C 413.523438 120.449219 412.660156 120.804688 412.023438 121.441406 C 411.386719 122.078125 411.027344 122.941406 411.027344 123.84375 C 411.027344 124.746094 411.386719 125.609375 412.023438 126.246094 C 412.660156 126.882812 413.523438 127.242188 414.421875 127.242188 C 415.324219 127.242188 416.1875 126.882812 416.824219 126.246094 C 417.460938 125.609375 417.820312 124.746094 417.820312 123.84375 Z M 417.820312 123.84375 " transform="matrix(1,0,0,1,-66,-5)"/>
<path style="fill-rule:evenodd;fill:rgb(63.99939%,70.400549%,80%);fill-opacity:1;stroke-width:1;stroke-linecap:square;stroke-linejoin:miter;stroke:rgb(0%,0%,0%);stroke-opacity:0.7;stroke-miterlimit:3.25;" d="M 309.957031 72.078125 C 309.957031 71.175781 309.601562 70.3125 308.964844 69.675781 C 308.328125 69.039062 307.460938 68.683594 306.5625 68.683594 C 305.660156 68.683594 304.796875 69.039062 304.160156 69.675781 C 303.523438 70.3125 303.164062 71.175781 303.164062 72.078125 C 303.164062 72.980469 303.523438 73.84375 304.160156 74.480469 C 304.796875 75.117188 305.660156 75.476562 306.5625 75.476562 C 307.460938 75.476562 308.328125 75.117188 308.964844 74.480469 C 309.601562 73.84375 309.957031 72.980469 309.957031 72.078125 Z M 309.957031 72.078125 " transform="matrix(1,0,0,1,-66,-5)"/>
<path style="fill-rule:evenodd;fill:rgb(63.99939%,70.400549%,80%);fill-opacity:1;stroke-width:1;stroke-linecap:square;stroke-linejoin:miter;stroke:rgb(0%,0%,0%);stroke-opacity:0.7;stroke-miterlimit:3.25;" d="M 239.824219 239.546875 C 239.824219 238.644531 239.464844 237.78125 238.828125 237.144531 C 238.191406 236.507812 237.328125 236.148438 236.429688 236.148438 C 235.527344 236.148438 234.664062 236.507812 234.027344 237.144531 C 233.390625 237.78125 233.03125 238.644531 233.03125 239.546875 C 233.03125 240.445312 233.390625 241.3125 234.027344 241.949219 C 234.664062 242.585938 235.527344 242.941406 236.429688 242.941406 C 237.328125 242.941406 238.191406 242.585938 238.828125 241.949219 C 239.464844 241.3125 239.824219 240.445312 239.824219 239.546875 Z M 239.824219 239.546875 " transform="matrix(1,0,0,1,-66,-5)"/>
<path style="fill-rule:evenodd;fill:rgb(63.99939%,70.400549%,80%);fill-opacity:1;stroke-width:1;stroke-linecap:square;stroke-linejoin:miter;stroke:rgb(0%,0%,0%);stroke-opacity:0.7;stroke-miterlimit:3.25;" d="M 185.316406 267.171875 C 185.316406 266.269531 184.960938 265.40625 184.324219 264.769531 C 183.6875 264.132812 182.820312 263.773438 181.921875 263.773438 C 181.019531 263.773438 180.15625 264.132812 179.519531 264.769531 C 178.882812 265.40625 178.523438 266.269531 178.523438 267.171875 C 178.523438 268.070312 178.882812 268.9375 179.519531 269.574219 C 180.15625 270.210938 181.019531 270.566406 181.921875 270.566406 C 182.820312 270.566406 183.6875 270.210938 184.324219 269.574219 C 184.960938 268.9375 185.316406 268.070312 185.316406 267.171875 Z M 185.316406 267.171875 " transform="matrix(1,0,0,1,-66,-5)"/>
</g>
</svg>
