<?xml version="1.0" encoding="UTF-8" standalone="no"?>
<!DOCTYPE svg PUBLIC "-//W3C//DTD SVG 1.1//EN" "http://www.w3.org/Graphics/SVG/1.1/DTD/svg11.dtd">
<svg width="100%" height="100%" viewBox="0 0 1280 800" version="1.1" xmlns="http://www.w3.org/2000/svg" xmlns:xlink="http://www.w3.org/1999/xlink" xml:space="preserve" xmlns:serif="http://www.serif.com/" style="fill-rule:evenodd;clip-rule:evenodd;stroke-linejoin:round;stroke-miterlimit:2;">
    <g transform="matrix(1,0,0,1,20.0951,-73.0575)">
        <path d="M87.494,682.718L87.494,263.397L252.126,263.397L252.126,518.086L312.541,518.086L312.541,263.397L477.174,263.397L477.174,518.086L537.589,518.086L537.589,263.397L702.221,263.397L702.221,518.086L762.636,518.086L762.636,263.397L927.269,263.397L927.269,518.086L987.684,518.086L987.684,263.397L1152.32,263.397L1152.32,682.718L87.494,682.718ZM91.494,678.718L1148.32,678.718C1148.32,678.718 1148.32,267.397 1148.32,267.397C1148.32,267.397 991.684,267.397 991.684,267.397L991.684,522.086L923.269,522.086C923.269,522.086 923.269,267.397 923.269,267.397C923.269,267.397 766.636,267.397 766.636,267.397L766.636,522.086L698.221,522.086C698.221,522.086 698.221,267.397 698.221,267.397C698.221,267.397 541.589,267.397 541.589,267.397L541.589,522.086L473.174,522.086L473.174,518.086C473.174,518.086 473.174,299.797 473.174,267.397C473.174,267.397 316.541,267.397 316.541,267.397L316.541,522.086L248.126,522.086L248.126,518.086C248.126,518.086 248.126,299.797 248.126,267.397L91.494,267.397L91.494,678.718Z"/>
    </g>
</svg>
