<svg version="1.1" xmlns="http://www.w3.org/2000/svg" viewBox="0 0 692 537" width="1384" height="1074">
  <!-- svg-source:excalidraw -->
  
  <defs>
    <style class="style-fonts">
      @font-face {
        font-family: "Virgil";
        src: url("https://excalidraw.com/Virgil.woff2");
      }
      @font-face {
        font-family: "Cascadia";
        src: url("https://excalidraw.com/Cascadia.woff2");
      }
      @font-face {
        font-family: "Assistant";
        src: url("https://excalidraw.com/Assistant-Regular.woff2");
      }
    </style>
    
  </defs>
  <g stroke-linecap="round" transform="translate(10 10) rotate(0 336 258.5)"><path d="M388.31 2.74 C412.62 1.55, 438.62 11.53, 461.93 18.9 C485.23 26.28, 507.77 35.99, 528.13 46.98 C548.49 57.97, 567.43 70.68, 584.08 84.83 C600.73 98.98, 615.6 115.18, 628.02 131.86 C640.43 148.54, 651.23 166.52, 658.57 184.91 C665.92 203.3, 670.54 223.13, 672.09 242.19 C673.63 261.25, 671.98 280.46, 667.85 299.24 C663.73 318.02, 656.75 337.23, 647.34 354.87 C637.93 372.52, 625.73 389.4, 611.39 405.13 C597.06 420.86, 579.55 436.17, 561.34 449.25 C543.12 462.32, 523.78 474.2, 502.1 483.58 C480.42 492.96, 455.27 500.22, 431.27 505.53 C407.27 510.84, 382.88 513.96, 358.11 515.46 C333.33 516.96, 307.21 517.35, 282.6 514.53 C257.99 511.72, 233.53 506.02, 210.43 498.58 C187.33 491.14, 164.49 480.82, 143.98 469.88 C123.47 458.94, 104.13 446.88, 87.36 432.95 C70.6 419.02, 55.51 403.1, 43.39 386.29 C31.28 369.48, 21.8 350.48, 14.68 332.09 C7.56 313.69, 2.32 294.86, 0.68 275.92 C-0.97 256.98, 0.99 237.58, 4.81 218.43 C8.64 199.27, 14.43 178.83, 23.62 160.99 C32.82 143.16, 45.53 126.98, 59.97 111.4 C74.41 95.82, 91.97 80.59, 110.27 67.51 C128.57 54.43, 148.16 42.39, 169.76 32.93 C191.35 23.47, 215.9 16.03, 239.83 10.75 C263.77 5.47, 287.13 2.27, 313.36 1.24 C339.59 0.2, 382.39 3.19, 397.22 4.55 C412.05 5.91, 403.4 5.2, 402.33 9.39 M265.09 5.05 C287.14 -2.53, 315.9 0.2, 341.1 0.39 C366.29 0.58, 391.85 1.84, 416.24 6.16 C440.63 10.48, 465.32 17.7, 487.42 26.32 C509.52 34.93, 529.93 45.3, 548.85 57.84 C567.77 70.39, 585.55 86.38, 600.94 101.59 C616.33 116.81, 630.67 131.8, 641.17 149.15 C651.68 166.49, 658.75 186.89, 663.96 205.69 C669.18 224.48, 672.57 242.87, 672.47 261.92 C672.37 280.96, 669.52 301.23, 663.38 319.97 C657.24 338.71, 646.84 357.21, 635.63 374.35 C624.41 391.5, 611.83 408.16, 596.11 422.84 C580.4 437.52, 561.02 450.54, 541.34 462.43 C521.66 474.33, 500.8 486.24, 478.03 494.21 C455.26 502.19, 429.51 506.56, 404.72 510.28 C379.94 514, 354 516.5, 329.31 516.56 C304.63 516.63, 280.68 515.15, 256.6 510.67 C232.52 506.19, 207.05 498.47, 184.81 489.68 C162.57 480.88, 142.23 470.08, 123.14 457.9 C104.05 445.72, 85.48 431.97, 70.29 416.61 C55.1 401.24, 42.28 383.24, 32.02 365.73 C21.77 348.22, 13.9 330.28, 8.76 311.55 C3.62 292.82, 0.99 272.44, 1.19 253.35 C1.38 234.26, 4.25 215.63, 9.93 197.04 C15.6 178.45, 24.1 159.02, 35.23 141.81 C46.37 124.61, 60.91 108.65, 76.74 93.79 C92.58 78.92, 110.28 64.05, 130.24 52.62 C150.2 41.19, 173.85 32.93, 196.5 25.21 C219.15 17.5, 254.39 8.54, 266.14 6.34 C277.88 4.13, 265.67 7.97, 266.96 12" stroke="#1e1e1e" stroke-width="2" fill="none"></path></g><g stroke-linecap="round" transform="translate(73 188) rotate(0 128.5 111)"><path d="M114.88 0.73 C128.5 -2.28, 145.52 -0.3, 159.82 2.56 C174.12 5.42, 188.58 10.73, 200.66 17.87 C212.74 25.01, 223.6 35.22, 232.29 45.41 C240.99 55.6, 248.66 66.94, 252.84 79 C257.02 91.07, 258.62 104.88, 257.35 117.8 C256.08 130.72, 251.2 144.85, 245.24 156.55 C239.28 168.24, 231.44 178.87, 221.58 187.98 C211.72 197.09, 199.35 205.54, 186.1 211.19 C172.84 216.84, 156.59 220.65, 142.04 221.87 C127.49 223.09, 113.06 221.43, 98.81 218.5 C84.56 215.56, 68.9 211.2, 56.53 204.28 C44.17 197.35, 33.32 187.26, 24.63 176.92 C15.93 166.59, 8.53 154.47, 4.35 142.26 C0.17 130.04, -1.65 116.13, -0.45 103.62 C0.75 91.11, 5.43 78.58, 11.56 67.18 C17.68 55.78, 26.28 44.52, 36.29 35.21 C46.3 25.9, 58.09 17.25, 71.62 11.32 C85.16 5.39, 109.51 1.07, 117.49 -0.39 C125.47 -1.85, 119.27 0.71, 119.5 2.57 M173.76 7.2 C187.48 9.33, 200.72 16.77, 211.53 24.92 C222.34 33.07, 231.18 44.78, 238.61 56.11 C246.04 67.44, 253.34 80.77, 256.12 92.92 C258.89 105.07, 257.73 116.52, 255.25 128.99 C252.77 141.46, 248.43 156.78, 241.24 167.74 C234.05 178.7, 223.45 186.69, 212.09 194.73 C200.72 202.76, 186.74 211.56, 173.04 215.94 C159.35 220.32, 144.55 221.12, 129.91 221.01 C115.27 220.9, 99.15 219.68, 85.21 215.29 C71.27 210.91, 57.42 203.02, 46.25 194.73 C35.09 186.43, 25.38 176.2, 18.22 165.52 C11.07 154.84, 5.85 143.04, 3.33 130.67 C0.81 118.29, 0.68 103.58, 3.12 91.29 C5.55 78.99, 10.68 67.84, 17.95 56.88 C25.22 45.93, 35.75 33.99, 46.74 25.56 C57.72 17.13, 70.27 10.67, 83.87 6.28 C97.47 1.9, 113.64 -0.77, 128.35 -0.77 C143.05 -0.77, 164.69 4.56, 172.08 6.28 C179.47 8, 173.39 7.65, 172.68 9.57" stroke="none" stroke-width="0" fill="#a5d8ff"></path><path d="M69.86 11.25 C81.19 4.35, 98.49 2.13, 113.14 0.59 C127.78 -0.94, 143.59 -1, 157.74 2.05 C171.88 5.1, 185.57 11.92, 197.98 18.89 C210.39 25.86, 223.45 33.8, 232.22 43.87 C240.98 53.94, 246.51 67.08, 250.58 79.3 C254.66 91.52, 257.27 104.48, 256.68 117.19 C256.09 129.91, 252.75 143.97, 247.04 155.61 C241.33 167.24, 232.46 177.83, 222.41 187 C212.37 196.17, 199.82 204.99, 186.79 210.61 C173.75 216.23, 158.76 219.35, 144.22 220.71 C129.68 222.07, 113.76 221.65, 99.52 218.77 C85.29 215.9, 71.06 210.19, 58.82 203.45 C46.58 196.71, 34.93 188.31, 26.08 178.33 C17.22 168.35, 10.17 155.74, 5.71 143.57 C1.24 131.39, -1.51 118.06, -0.73 105.28 C0.05 92.5, 4.63 78.7, 10.39 66.87 C16.15 55.04, 22.27 44.14, 33.83 34.28 C45.4 24.43, 70.57 12.2, 79.76 7.75 C88.95 3.3, 88.05 5.87, 88.96 7.59 M149.77 0.23 C164.16 0.32, 180.09 7.9, 192.76 14.46 C205.43 21.01, 216.71 30.2, 225.8 39.56 C234.88 48.91, 241.83 59.03, 247.27 70.58 C252.71 82.13, 258.25 96.24, 258.44 108.87 C258.63 121.5, 253.65 134.02, 248.42 146.34 C243.19 158.66, 236.04 172.63, 227.06 182.78 C218.08 192.94, 206.92 200.83, 194.55 207.24 C182.17 213.65, 167.27 219.12, 152.79 221.24 C138.32 223.35, 122.29 221.96, 107.68 219.94 C93.08 217.93, 78.06 215.3, 65.18 209.16 C52.29 203.02, 39.63 192.97, 30.37 183.11 C21.11 173.24, 14.55 161.76, 9.61 149.99 C4.67 138.22, 1.1 124.99, 0.72 112.48 C0.35 99.98, 2.55 86.75, 7.37 74.96 C12.2 63.18, 20.23 51.69, 29.68 41.78 C39.13 31.87, 51.8 22.27, 64.04 15.49 C76.29 8.71, 89.13 3.43, 103.18 1.11 C117.22 -1.2, 140.67 1.31, 148.31 1.58 C155.95 1.85, 149.31 0.72, 149 2.74" stroke="#1e1e1e" stroke-width="2" fill="none"></path></g><g transform="translate(255 56) rotate(0 39 12.5)"><text x="0" y="17.52" font-family="Virgil, Segoe UI Emoji" font-size="20px" fill="#1e1e1e" text-anchor="start" style="white-space: pre;" direction="ltr" dominant-baseline="alphabetic">January</text></g><g transform="translate(354 134.5) rotate(0 41.91666793823242 12.5)"><text x="0" y="17.52" font-family="Virgil, Segoe UI Emoji" font-size="20px" fill="#1e1e1e" text-anchor="start" style="white-space: pre;" direction="ltr" dominant-baseline="alphabetic">February</text></g><g transform="translate(443.0833320617676 235.5) rotate(0 28.58333396911621 12.5)"><text x="0" y="17.52" font-family="Virgil, Segoe UI Emoji" font-size="20px" fill="#1e1e1e" text-anchor="start" style="white-space: pre;" direction="ltr" dominant-baseline="alphabetic">March</text></g><g transform="translate(441.0833320617676 417.5) rotate(0 20.616666793823242 12.5)"><text x="0" y="17.52" font-family="Virgil, Segoe UI Emoji" font-size="20px" fill="#1e1e1e" text-anchor="start" style="white-space: pre;" direction="ltr" dominant-baseline="alphabetic">April</text></g><g transform="translate(155.08333206176758 227.5) rotate(0 19.016666412353516 12.5)"><text x="0" y="17.52" font-family="Virgil, Segoe UI Emoji" font-size="20px" fill="#1e1e1e" text-anchor="start" style="white-space: pre;" direction="ltr" dominant-baseline="alphabetic">May</text></g><g transform="translate(98.08333206176758 277.5) rotate(0 22.149999618530273 12.5)"><text x="0" y="17.52" font-family="Virgil, Segoe UI Emoji" font-size="20px" fill="#1e1e1e" text-anchor="start" style="white-space: pre;" direction="ltr" dominant-baseline="alphabetic">June</text></g><g transform="translate(176.08333206176758 330.5) rotate(0 19.33333396911621 12.5)"><text x="0" y="17.52" font-family="Virgil, Segoe UI Emoji" font-size="20px" fill="#1e1e1e" text-anchor="start" style="white-space: pre;" direction="ltr" dominant-baseline="alphabetic">July</text></g><g transform="translate(220.08333206176758 273.5) rotate(0 34.03333282470703 12.5)"><text x="0" y="17.52" font-family="Virgil, Segoe UI Emoji" font-size="20px" fill="#1e1e1e" text-anchor="start" style="white-space: pre;" direction="ltr" dominant-baseline="alphabetic">August</text></g><g transform="translate(363.0833320617676 327.5) rotate(0 48.78333282470703 12.5)"><text x="0" y="17.52" font-family="Virgil, Segoe UI Emoji" font-size="20px" fill="#1e1e1e" text-anchor="start" style="white-space: pre;" direction="ltr" dominant-baseline="alphabetic">September</text></g><g transform="translate(287 441) rotate(0 38.31666564941406 12.5)"><text x="0" y="17.52" font-family="Virgil, Segoe UI Emoji" font-size="20px" fill="#1e1e1e" text-anchor="start" style="white-space: pre;" direction="ltr" dominant-baseline="alphabetic">October</text></g><g transform="translate(514 302) rotate(0 43.849998474121094 12.5)"><text x="0" y="17.52" font-family="Virgil, Segoe UI Emoji" font-size="20px" fill="#1e1e1e" text-anchor="start" style="white-space: pre;" direction="ltr" dominant-baseline="alphabetic">November</text></g><g transform="translate(505 145) rotate(0 44.93333435058594 12.5)"><text x="0" y="17.52" font-family="Virgil, Segoe UI Emoji" font-size="20px" fill="#1e1e1e" text-anchor="start" style="white-space: pre;" direction="ltr" dominant-baseline="alphabetic">December</text></g></svg>